<svg width="800" height="800" viewBox="0 0 800 800" fill="none" xmlns="http://www.w3.org/2000/svg">
<g clip-path="url(#clip0_19_32692)">
<path d="M550.26 215.872C550.961 218.675 551.185 222.853 550.007 226.133C550.007 226.133 547.792 226.33 547.26 225.741C546.727 225.152 545.101 222.853 545.101 222.853V218.395H545.325L547.428 215.816C548.129 215.507 549.362 215.507 550.26 215.872V215.872Z" fill="url(#paint0_linear_19_32692)"/>
<path d="M550.26 230.422C550.961 233.254 551.185 237.403 550.007 240.712C550.007 240.712 547.792 240.88 547.26 240.291C546.727 239.702 545.101 237.403 545.101 237.403V232.945H545.325L547.428 230.366C548.129 230.085 549.362 230.085 550.26 230.422V230.422Z" fill="url(#paint1_linear_19_32692)"/>
<path d="M545.101 237.402V238.383C545.101 240.318 543.531 241.888 541.597 241.888C541.597 241.888 532.793 242.112 530.718 241.888C528.868 238.832 529.12 232.019 530.718 228.738C531.447 228.598 532.821 228.542 534.419 228.57C536.971 228.598 540.027 228.738 541.597 228.738C544.148 228.738 545.101 230.28 545.101 232.215V237.402V237.402Z" fill="url(#paint2_radial_19_32692)"/>
<path d="M545.101 222.879V223.86C545.101 225.767 543.531 227.337 541.597 227.337C541.597 227.337 537.672 227.449 534.447 227.449C532.849 227.449 531.419 227.421 530.718 227.337C528.868 224.281 529.12 217.468 530.718 214.187C532.597 213.823 539.045 214.187 541.597 214.187C544.148 214.187 545.101 215.757 545.101 217.692V222.879V222.879Z" fill="url(#paint3_radial_19_32692)"/>
<path d="M530.717 214.161C529.119 217.441 528.867 224.255 530.717 227.311C529.932 227.226 525.558 225.488 522.951 224.675C521.016 223.077 521.549 217.974 522.951 216.572V216.516C525.558 215.899 529.624 214.385 530.717 214.161V214.161Z" fill="url(#paint4_radial_19_32692)"/>
<path d="M530.717 228.739C529.119 232.019 528.867 238.832 530.717 241.888C529.932 241.804 525.558 240.038 522.951 239.225C521.016 237.655 521.549 232.552 522.951 231.122C525.558 230.449 529.624 228.935 530.717 228.739V228.739Z" fill="url(#paint5_radial_19_32692)"/>
<path d="M522.953 231.095C521.551 232.553 521.018 237.656 522.953 239.226C522.252 239.029 521.691 238.861 521.354 238.833H460.682C461.354 236.899 461.411 233.45 460.822 231.319H521.831C522.168 231.263 522.532 231.207 522.953 231.095V231.095Z" fill="url(#paint6_linear_19_32692)"/>
<path d="M522.953 216.516V216.572C521.551 217.974 521.018 223.077 522.953 224.675C522.252 224.451 521.691 224.31 521.354 224.254H460.682C461.383 222.32 461.411 218.871 460.822 216.74H521.831C522.168 216.684 522.532 216.628 522.953 216.516V216.516Z" fill="url(#paint7_linear_19_32692)"/>
<path d="M460.681 224.281C460.372 225.15 459.924 225.711 459.363 225.711H448.569C446.606 223.328 447.307 216.627 449.017 214.889H459.363C460.008 214.889 460.513 215.646 460.821 216.767C461.41 218.898 461.382 222.347 460.681 224.281Z" fill="url(#paint8_linear_19_32692)"/>
<path d="M460.682 238.861C460.346 239.703 459.925 240.263 459.364 240.263H448.542C446.607 237.88 447.336 231.207 449.019 229.469H459.364C460.009 229.469 460.514 230.226 460.822 231.347C461.411 233.478 461.355 236.927 460.682 238.861V238.861Z" fill="url(#paint9_linear_19_32692)"/>
<path d="M416.999 222.124C417.083 219.544 417.111 217.666 417.083 217.273C417.083 216.797 416.579 215.871 415.878 214.862H449.018C447.308 216.6 446.607 223.301 448.569 225.684H416.943C416.943 224.423 416.999 223.217 416.999 222.124V222.124Z" fill="url(#paint10_linear_19_32692)"/>
<path d="M416.662 239.588C416.719 237.148 416.803 233.279 416.887 229.438H449.018C447.335 231.176 446.606 237.849 448.541 240.233H416.634C416.634 240.036 416.634 239.812 416.634 239.588H416.662Z" fill="url(#paint11_linear_19_32692)"/>
<path d="M411.532 238.692L411.812 225.206L411.98 217.44L417.083 217.272C417.083 217.664 417.083 219.543 416.999 222.122L414.251 224.842V237.178L416.663 239.59C416.663 239.814 416.663 240.038 416.663 240.234C416.663 241.412 416.663 242.113 416.663 242.113H411.504L411.588 238.692H411.532Z" fill="url(#paint12_linear_19_32692)"/>
<path d="M415.878 214.861C416.579 215.871 417.055 216.796 417.083 217.273L411.98 217.441V217.273L404.523 210.179C405.56 210.179 411.672 210.263 412.149 210.403C412.513 210.516 414.56 212.871 415.878 214.861V214.861Z" fill="url(#paint13_linear_19_32692)"/>
<path d="M416.887 229.442C416.803 233.283 416.719 237.152 416.663 239.591L414.251 237.18V224.843L416.999 222.124C416.999 223.217 416.999 224.423 416.943 225.685C416.943 226.89 416.943 228.18 416.887 229.442V229.442Z" fill="url(#paint14_linear_19_32692)"/>
<path d="M411.981 217.299V217.468L411.813 225.234L408.112 227V228.935L404.411 228.795V210.206H404.551L412.009 217.299H411.981Z" fill="url(#paint15_linear_19_32692)"/>
<path d="M408.055 228.906L408.083 227L411.784 225.233H411.812L411.531 238.691L407.915 235.635L407.971 232.411L408.055 228.906Z" fill="url(#paint16_linear_19_32692)"/>
<path d="M411.532 238.693L411.448 242.113H404.382V232.272L407.971 232.412L407.915 235.637L411.532 238.693Z" fill="url(#paint17_linear_19_32692)"/>
<path d="M408.055 228.91L407.971 232.414L404.382 232.274V228.769L408.055 228.91Z" fill="url(#paint18_linear_19_32692)"/>
<path d="M404.381 232.272V242.59C404.381 244.664 402.698 246.347 400.624 246.347C398.549 246.347 396.867 244.664 396.867 242.59V210.207C396.867 208.132 398.577 206.45 400.624 206.45C402.67 206.45 404.381 208.132 404.381 210.207V232.3V232.272Z" fill="url(#paint19_linear_19_32692)"/>
<path d="M390.307 238.691C390.615 238.775 390.924 238.831 391.232 238.831C393.055 238.831 394.513 237.345 394.513 235.522C394.513 233.7 393.055 232.242 391.232 232.242C389.41 232.242 387.952 233.728 387.952 235.522C387.952 237.036 388.933 238.298 390.307 238.691V238.691ZM396.868 229.494V242.111H371.27V241.41C372.335 240.681 373.12 239.616 373.541 238.354H378.559C379.092 238.354 379.344 233.98 379.372 229.438H379.541C382.204 229.775 391.372 229.606 396.868 229.494V229.494Z" fill="url(#paint20_linear_19_32692)"/>
<path d="M396.869 223.354V229.522C391.374 229.634 382.205 229.802 379.542 229.466H379.374C379.402 227.307 379.346 225.12 379.233 223.354H396.869V223.354Z" fill="url(#paint21_linear_19_32692)"/>
<path d="M392.41 213.713C392.046 213.573 391.653 213.488 391.233 213.488C389.41 213.488 387.952 214.946 387.952 216.769C387.952 218.591 389.41 220.077 391.233 220.077C391.597 220.077 391.934 220.021 392.242 219.909C393.56 219.488 394.513 218.227 394.513 216.769C394.513 215.311 393.644 214.161 392.41 213.713V213.713ZM396.868 211.133V223.358H379.233C379.093 221.171 378.868 219.657 378.56 219.657H373.85C373.85 216.236 371.102 213.488 367.681 213.488H346.205C342.784 213.488 340.037 216.236 340.037 219.657V221.171H330.672V220.526L324.055 213.965L329.971 206.872C330.7 206.002 331.765 205.498 332.887 205.498H343.794V207.881C343.794 209.171 344.831 210.208 346.121 210.208H373.878C375.167 210.208 376.205 209.171 376.205 207.881V204.573L383.719 211.133H396.868V211.133Z" fill="url(#paint22_linear_19_32692)"/>
<path d="M392.409 213.711C393.643 214.16 394.512 215.366 394.512 216.767C394.512 218.169 393.559 219.487 392.241 219.908L392.409 213.711V213.711Z" fill="url(#paint23_linear_19_32692)"/>
<path d="M392.41 213.71L392.242 219.906C391.933 220.019 391.597 220.075 391.232 220.075C389.41 220.075 387.952 218.589 387.952 216.766C387.952 214.944 389.41 213.486 391.232 213.486C391.653 213.486 392.046 213.57 392.41 213.71V213.71Z" fill="url(#paint24_linear_19_32692)"/>
<path d="M390.307 238.693C388.933 238.3 387.952 237.038 387.952 235.524C387.952 233.73 389.41 232.244 391.232 232.244C393.055 232.244 394.513 233.73 394.513 235.524C394.513 237.319 393.055 238.833 391.232 238.833C390.924 238.833 390.616 238.777 390.307 238.693V238.693Z" fill="url(#paint25_linear_19_32692)"/>
<path d="M390.307 242.113L382.316 249.627H379.036H371.27V242.113H390.307Z" fill="url(#paint26_linear_19_32692)"/>
<path d="M379.233 223.357C379.345 225.123 379.401 227.31 379.373 229.469C379.345 234.011 379.093 238.385 378.56 238.385H373.541C373.737 237.768 373.85 237.123 373.85 236.451V219.656H378.56C378.868 219.656 379.093 221.17 379.233 223.357Z" fill="url(#paint27_linear_19_32692)"/>
<path d="M371.269 249.626H379.036L378.559 257.617L372.924 263.252L370.569 257.617H366.335V251.028C366.335 250.635 348.952 250.635 348.952 251.028L343.793 244.467L344.718 242.589L344.774 242.392C345.223 242.533 345.699 242.589 346.204 242.589H364.933L368.69 249.626H371.269V249.626Z" fill="url(#paint28_linear_19_32692)"/>
<path d="M353.466 199.384H373.877C375.167 199.384 376.204 200.421 376.204 201.711V207.879C376.204 209.169 375.167 210.206 373.877 210.206H346.12C344.83 210.206 343.793 209.169 343.793 207.879V201.683C343.793 200.393 344.83 199.355 346.12 199.355H353.466V199.384Z" fill="url(#paint29_linear_19_32692)"/>
<path d="M373.542 238.356C373.121 239.618 372.336 240.683 371.271 241.412C370.906 241.693 370.486 241.945 370.037 242.113C369.308 242.422 368.523 242.59 367.682 242.59H346.205C345.701 242.59 345.224 242.534 344.775 242.394C342.056 241.777 340.037 239.309 340.037 236.422V219.627C340.037 216.207 342.785 213.459 346.205 213.459H367.682C371.102 213.459 373.85 216.207 373.85 219.627V236.422C373.85 237.095 373.738 237.739 373.542 238.356V238.356ZM368.215 236.954C371.972 236.954 371.972 220.048 368.215 220.048C368.215 220.048 345.813 220.44 344.719 220.496C342.224 220.496 342.224 236.954 344.719 236.954H368.215Z" fill="url(#paint30_linear_19_32692)"/>
<path d="M348.953 257.62H366.336H370.57L372.925 263.255H342.841L344.271 257.62H348.953Z" fill="url(#paint31_linear_19_32692)"/>
<path d="M371.27 242.113V249.627H368.69L364.933 242.59H367.681C368.522 242.59 369.307 242.422 370.036 242.113H371.27V242.113Z" fill="url(#paint32_linear_19_32692)"/>
<path d="M371.27 241.414V242.115H370.036C370.485 241.946 370.906 241.694 371.27 241.414Z" fill="url(#paint33_linear_19_32692)"/>
<path d="M368.214 220.074C371.971 220.074 371.971 236.98 368.214 236.98H344.719C342.223 236.98 342.223 220.522 344.719 220.522C345.812 220.466 368.214 220.074 368.214 220.074V220.074ZM368.214 231.793C369.7 231.793 369.7 225.233 368.214 225.233H346.149C344.41 225.233 344.41 231.793 346.149 231.793H368.214Z" fill="url(#paint34_linear_19_32692)"/>
<path d="M368.214 225.233C369.7 225.233 369.7 231.794 368.214 231.794H346.149C344.411 231.794 344.411 225.233 346.149 225.233H368.214Z" fill="url(#paint35_linear_19_32692)"/>
<path d="M366.335 251.029V257.618H348.952V251.029C348.952 250.636 366.335 250.636 366.335 251.029Z" fill="url(#paint36_linear_19_32692)"/>
<path d="M353.466 195.627V199.384H348.896L348.727 195.627C348.727 194.225 353.466 194.225 353.466 195.627V195.627Z" fill="url(#paint37_linear_19_32692)"/>
<path d="M348.952 251.028V257.617H344.27L342.84 263.253L334.681 253.131C334.064 252.374 333.728 251.449 333.728 250.496L333.56 244.159L343.793 244.468L348.952 251.028Z" fill="url(#paint38_linear_19_32692)"/>
<path d="M333.559 244.188L329.045 244.048L331.12 236.506V235.637C331.568 235.3 338.634 235.581 340.036 235.609V236.45C340.036 239.338 342.054 241.805 344.774 242.422L344.718 242.618L343.793 244.497L333.559 244.188V244.188Z" fill="url(#paint39_linear_19_32692)"/>
<path d="M340.036 221.14V235.579C338.634 235.551 331.569 235.271 331.12 235.607H331.092L330.671 221.14H340.036Z" fill="url(#paint40_linear_19_32692)"/>
<path d="M329.045 244.021L328.849 244.778C328.484 246.096 327.447 247.105 326.129 247.385C320.045 248.675 310.316 248.479 305.746 246.825L301.821 237.32H321.25C322.484 237.32 323.493 236.311 323.493 235.077C323.493 233.843 322.484 232.834 321.25 232.834H300.138L300.25 230.03H321.25C322.484 230.03 323.493 229.021 323.493 227.787C323.493 226.554 322.484 225.544 321.25 225.544H300.447L300.559 223.329L301.12 222.741H321.25C322.484 222.741 323.493 221.731 323.493 220.498C323.493 219.264 322.484 218.255 321.25 218.255H305.409L308.101 215.423C308.998 214.47 310.232 213.937 311.55 213.937H324.054L330.643 220.498V221.142L331.092 235.61V236.479L329.045 244.021V244.021Z" fill="url(#paint41_radial_19_32692)"/>
<path d="M321.251 218.255C322.484 218.255 323.494 219.264 323.494 220.498C323.494 221.731 322.484 222.74 321.251 222.74H301.12L305.381 218.255H321.251V218.255Z" fill="url(#paint42_linear_19_32692)"/>
<path d="M321.25 225.569C322.484 225.569 323.493 226.578 323.493 227.812C323.493 229.046 322.484 230.055 321.25 230.055H300.25L300.447 225.569H321.25V225.569Z" fill="url(#paint43_linear_19_32692)"/>
<path d="M321.252 232.831C322.485 232.831 323.495 233.84 323.495 235.074C323.495 236.307 322.485 237.317 321.252 237.317H301.822L300.111 233.195V232.831H321.252Z" fill="url(#paint44_linear_19_32692)"/>
<path d="M305.41 218.252L308.102 215.42C308.999 214.467 310.233 213.934 311.551 213.934H324.055L330.644 220.495V221.14L331.093 235.607V236.477L329.046 244.019L328.85 244.776C328.485 246.093 327.448 247.103 326.13 247.383C320.046 248.673 310.317 248.477 305.747 246.822L301.822 237.318L300.111 233.196V232.832L300.252 230.028L300.448 225.542L300.56 223.327L301.121 222.738L305.382 218.252" stroke="#231F20" stroke-width="1.119" stroke-miterlimit="10"/>
<path d="M305.382 218.252H321.251C322.485 218.252 323.494 219.261 323.494 220.495C323.494 221.729 322.485 222.738 321.251 222.738H301.12" stroke="#231F20" stroke-width="1.119" stroke-miterlimit="10"/>
<path d="M300.475 225.572H321.25C322.484 225.572 323.493 226.581 323.493 227.815C323.493 229.048 322.484 230.058 321.25 230.058H300.25" stroke="#231F20" stroke-width="1.119" stroke-miterlimit="10"/>
<path d="M300.111 232.833H321.252C322.485 232.833 323.495 233.843 323.495 235.076C323.495 236.31 322.485 237.319 321.252 237.319H301.794" stroke="#231F20" stroke-width="1.119" stroke-miterlimit="10"/>
<path d="M328.288 243.99L329.045 244.018L333.559 244.187L343.793 244.467L344.718 242.589" stroke="#231F20" stroke-width="1.119" stroke-miterlimit="10"/>
<path d="M333.56 243.739V244.188L333.729 250.524C333.729 251.477 334.065 252.403 334.682 253.16L342.841 263.281H372.925L378.56 257.646L379.037 249.655" stroke="#231F20" stroke-width="1.119" stroke-miterlimit="10"/>
<path d="M370.037 242.112C369.308 242.42 368.523 242.589 367.682 242.589H346.205C345.7 242.589 345.224 242.533 344.775 242.392C342.056 241.776 340.037 239.308 340.037 236.42V219.626C340.037 216.205 342.785 213.458 346.205 213.458H367.682C371.102 213.458 373.85 216.205 373.85 219.626V236.42C373.85 237.093 373.738 237.738 373.542 238.355C373.121 239.617 372.336 240.682 371.271 241.411C370.906 241.691 370.486 241.944 370.037 242.112V242.112Z" stroke="#231F20" stroke-width="1.119" stroke-miterlimit="10"/>
<path d="M376.205 204.541V207.85C376.205 209.139 375.168 210.177 373.878 210.177H346.121C344.831 210.177 343.794 209.139 343.794 207.85V201.681C343.794 200.392 344.831 199.354 346.121 199.354H373.878C375.168 199.354 376.205 200.392 376.205 201.681V204.541V204.541Z" stroke="#231F20" stroke-width="1.119" stroke-miterlimit="10"/>
<path d="M324.055 213.933L329.971 206.84C330.7 205.97 331.765 205.466 332.887 205.466H344.27" stroke="#231F20" stroke-width="1.119" stroke-miterlimit="10"/>
<path d="M376.205 204.543L383.719 211.132H396.869" stroke="#231F20" stroke-width="1.119" stroke-miterlimit="10"/>
<path d="M396.868 242.112H390.308H371.27H370.037H369.616" stroke="#231F20" stroke-width="1.119" stroke-miterlimit="10"/>
<path d="M373.849 219.628H378.559C378.867 219.628 379.092 221.142 379.232 223.329C379.344 225.095 379.4 227.282 379.372 229.441C379.344 233.983 379.092 238.357 378.559 238.357H373.372" stroke="#231F20" stroke-width="1.119" stroke-miterlimit="10"/>
<path d="M379.542 229.441C382.205 229.777 391.373 229.609 396.869 229.497" stroke="#231F20" stroke-width="1.119" stroke-miterlimit="10"/>
<path d="M379.036 223.356H379.232H396.868" stroke="#231F20" stroke-width="1.119" stroke-miterlimit="10"/>
<path d="M344.719 220.494C342.224 220.494 342.224 236.952 344.719 236.952H368.215C371.972 236.952 371.972 220.046 368.215 220.046C368.215 220.046 345.813 220.438 344.719 220.494Z" stroke="#231F20" stroke-width="1.119" stroke-miterlimit="10"/>
<path d="M364.934 242.589L368.691 249.626H371.27H379.037H382.317L390.308 242.112" stroke="#231F20" stroke-width="1.119" stroke-miterlimit="10"/>
<path d="M342.841 263.253L344.271 257.617H348.953H366.336H370.57L372.925 263.253" stroke="#231F20" stroke-width="1.119" stroke-miterlimit="10"/>
<path d="M348.952 258.094V251.029C348.952 250.636 366.335 250.636 366.335 251.029V257.618" stroke="#231F20" stroke-width="1.119" stroke-miterlimit="10"/>
<path d="M346.149 225.236C344.411 225.236 344.411 231.797 346.149 231.797H368.214C369.7 231.797 369.7 225.236 368.214 225.236H346.149Z" stroke="#231F20" stroke-width="1.119" stroke-miterlimit="10"/>
<path d="M392.411 213.71C393.644 214.159 394.513 215.365 394.513 216.766C394.513 218.168 393.56 219.486 392.242 219.907C391.934 220.019 391.598 220.075 391.233 220.075C389.411 220.075 387.953 218.589 387.953 216.766C387.953 214.944 389.411 213.486 391.233 213.486C391.654 213.486 392.046 213.57 392.411 213.71V213.71Z" stroke="#231F20" stroke-width="1.119" stroke-miterlimit="10"/>
<path d="M394.513 235.525C394.513 237.347 393.055 238.833 391.233 238.833C390.925 238.833 390.616 238.777 390.308 238.693C388.934 238.3 387.953 237.039 387.953 235.525C387.953 233.73 389.411 232.244 391.233 232.244C393.055 232.244 394.513 233.73 394.513 235.525V235.525Z" stroke="#231F20" stroke-width="1.119" stroke-miterlimit="10"/>
<path d="M404.382 242.113V242.59C404.382 244.665 402.7 246.347 400.625 246.347C398.55 246.347 396.868 244.665 396.868 242.59V210.207C396.868 208.132 398.578 206.45 400.625 206.45C402.672 206.45 404.382 208.132 404.382 210.207V242.141V242.113Z" stroke="#231F20" stroke-width="1.119" stroke-miterlimit="10"/>
<path d="M404.382 210.206H404.522C405.56 210.206 411.672 210.29 412.149 210.43C412.513 210.543 414.56 212.898 415.878 214.888C416.578 215.898 417.055 216.823 417.083 217.3C417.083 217.692 417.083 219.571 416.999 222.15C416.999 223.243 416.999 224.449 416.943 225.711C416.943 226.916 416.943 228.206 416.887 229.468C416.803 233.309 416.719 237.178 416.663 239.617C416.663 239.842 416.663 240.066 416.663 240.262C416.663 241.44 416.663 242.141 416.663 242.141H404.438" stroke="#231F20" stroke-width="1.119" stroke-miterlimit="10"/>
<path d="M415.849 214.861H459.363C460.008 214.861 460.513 215.618 460.821 216.739C461.41 218.87 461.382 222.319 460.681 224.253C460.372 225.122 459.924 225.683 459.363 225.683H417.083" stroke="#231F20" stroke-width="1.119" stroke-miterlimit="10"/>
<path d="M449.017 214.861C447.307 216.599 446.606 223.3 448.569 225.683C448.681 225.851 448.849 226.02 449.017 226.132" stroke="#231F20" stroke-width="1.119" stroke-miterlimit="10"/>
<path d="M460.288 216.739H521.83C522.167 216.683 522.531 216.626 522.952 216.514C525.559 215.898 529.625 214.383 530.718 214.159C532.597 213.795 539.045 214.159 541.597 214.159C544.148 214.159 545.101 215.729 545.101 217.664V223.832C545.101 225.739 543.531 227.309 541.597 227.309C541.597 227.309 537.671 227.421 534.447 227.421C532.849 227.421 531.419 227.393 530.718 227.309C529.933 227.225 525.559 225.486 522.952 224.673C522.251 224.449 521.69 224.309 521.354 224.253H460.288" stroke="#231F20" stroke-width="1.119" stroke-miterlimit="10"/>
<path d="M545.326 218.393L547.429 215.813C548.13 215.505 549.364 215.505 550.261 215.869C550.962 218.673 551.186 222.851 550.009 226.131C550.009 226.131 547.794 226.327 547.261 225.738C546.728 225.15 545.102 222.851 545.102 222.851" stroke="#231F20" stroke-width="1.119" stroke-miterlimit="10"/>
<path d="M530.718 214.16C529.12 217.44 528.868 224.253 530.718 227.309" stroke="#231F20" stroke-width="1.119" stroke-miterlimit="10"/>
<path d="M522.952 216.598C521.55 218 521.018 223.103 522.952 224.701" stroke="#231F20" stroke-width="1.119" stroke-miterlimit="10"/>
<path d="M415.849 229.441H459.363C460.008 229.441 460.513 230.198 460.821 231.319C461.41 233.45 461.354 236.899 460.681 238.833C460.344 239.675 459.924 240.235 459.363 240.235H417.083" stroke="#231F20" stroke-width="1.119" stroke-miterlimit="10"/>
<path d="M449.018 229.441C447.336 231.179 446.607 237.852 448.542 240.235C448.682 240.432 448.85 240.572 449.018 240.712" stroke="#231F20" stroke-width="1.119" stroke-miterlimit="10"/>
<path d="M460.288 231.318H521.83C522.167 231.262 522.531 231.206 522.952 231.094C525.559 230.449 529.625 228.935 530.718 228.738C531.447 228.598 532.821 228.542 534.419 228.57C536.97 228.598 540.027 228.738 541.597 228.738C544.148 228.738 545.101 230.281 545.101 232.215V238.383C545.101 240.318 543.531 241.888 541.597 241.888C541.597 241.888 532.793 242.112 530.718 241.888C529.933 241.804 525.559 240.038 522.952 239.224C522.251 239.028 521.69 238.86 521.354 238.832H460.288" stroke="#231F20" stroke-width="1.119" stroke-miterlimit="10"/>
<path d="M545.326 232.944L547.429 230.365C548.13 230.084 549.364 230.084 550.261 230.421C550.962 233.252 551.186 237.402 550.009 240.71C550.009 240.71 547.794 240.879 547.261 240.29C546.728 239.701 545.102 237.402 545.102 237.402" stroke="#231F20" stroke-width="1.119" stroke-miterlimit="10"/>
<path d="M530.718 228.739C529.12 232.019 528.868 238.832 530.718 241.888" stroke="#231F20" stroke-width="1.119" stroke-miterlimit="10"/>
<path d="M522.952 231.122C521.55 232.552 521.018 237.655 522.952 239.225" stroke="#231F20" stroke-width="1.119" stroke-miterlimit="10"/>
<path d="M411.447 242.113L411.532 238.693L411.812 225.235L411.98 217.44L417.083 217.3" stroke="#231F20" stroke-width="1.119" stroke-miterlimit="10"/>
<path d="M411.785 225.236L408.084 227.002L408.056 228.909L407.972 232.414L407.916 235.638L411.533 238.694L411.617 238.806" stroke="#231F20" stroke-width="1.119" stroke-miterlimit="10"/>
<path d="M408.083 228.907H408.055L404.382 228.767L404.045 228.739" stroke="#231F20" stroke-width="1.119" stroke-miterlimit="10"/>
<path d="M404.045 232.244L404.382 232.272L407.97 232.412H408.083" stroke="#231F20" stroke-width="1.119" stroke-miterlimit="10"/>
<path d="M404.382 210.038L404.522 210.206L411.98 217.3" stroke="#231F20" stroke-width="1.119" stroke-miterlimit="10"/>
<path d="M417.083 222.066L416.999 222.122L414.251 224.87V237.178L416.663 239.59L416.719 239.646" stroke="#231F20" stroke-width="1.119" stroke-miterlimit="10"/>
<path d="M390.307 232.412V238.692V238.945" stroke="#231F20" stroke-width="1.119" stroke-miterlimit="10"/>
<path d="M392.242 220.103V219.879L392.41 213.711V213.599" stroke="#231F20" stroke-width="1.119" stroke-miterlimit="10"/>
<path d="M348.896 199.468V199.356L348.728 195.599C348.728 194.197 353.466 194.197 353.466 195.599V199.832" stroke="#231F20" stroke-width="1.119" stroke-miterlimit="10"/>
<path d="M330.391 221.141H340.26" stroke="#231F20" stroke-width="1.119" stroke-miterlimit="10"/>
<path d="M331.12 235.636C331.569 235.299 338.634 235.58 340.036 235.608C340.176 235.636 340.261 235.636 340.261 235.636" stroke="#231F20" stroke-width="1.119" stroke-miterlimit="10"/>
<path d="M343.794 244.466L348.953 251.026" stroke="#231F20" stroke-width="1.119" stroke-miterlimit="10"/>
<path d="M371.269 250.075V249.626V242.112V241.411" stroke="#231F20" stroke-width="1.119" stroke-miterlimit="10"/>
<path d="M346.513 207.348V201.348L373.653 201.713V204.545C373.653 204.545 351.448 200.311 346.513 207.376V207.348Z" fill="#F2F1E6"/>
<path d="M341.214 208.049H334.625C333.419 208.049 332.27 208.498 331.401 209.339L327.84 214.049L333.111 218.984C333.111 218.984 331.008 211.946 341.214 208.049Z" fill="#F2F1E6"/>
<path d="M311.635 215.759L322.906 216.124L328.177 221.759C317.495 216.797 297.925 223.498 312.673 246.068L307.738 245.367L302.467 233.395L302.832 224.591L311.635 215.787V215.759Z" fill="#F2F1E6"/>
<path d="M378.559 209.786L383.13 213.655H386.662C386.662 213.655 383.13 217.525 387.027 220.693L378.924 217.16L376.092 212.225L378.559 209.758V209.786Z" fill="#F2F1E6"/>
<path d="M419.775 217.891L457.485 217.19C457.485 217.19 459.952 219.293 458.887 223.19C450.896 216.461 448.878 219.546 447.616 223.891C445.373 218.873 431.775 218.732 419.775 217.891Z" fill="#F2F1E6"/>
<path d="M463.822 218.591L463.457 222.46C463.457 222.46 504.672 216.824 519.112 221.394V218.563H463.822V218.591Z" fill="#F2F1E6"/>
<path d="M523.71 221.759L524.074 218.59L527.944 216.824V221.394C527.944 221.394 524.411 218.927 523.71 221.759V221.759Z" fill="#F2F1E6"/>
<path d="M532.178 216.487C532.178 216.487 541.346 215.421 542.383 216.851C543.421 218.281 544.15 222.487 542.748 224.253C539.916 213.683 531.477 223.889 532.178 216.515V216.487Z" fill="#F2F1E6"/>
<path d="M347.551 230.226L347.214 226.722L366.588 226.329L357.42 230.226H347.551Z" fill="#F2F1E6"/>
<path d="M419.438 231.992L458.55 231.627C459.251 233.393 459.616 237.963 458.186 237.963C456.868 235.328 453.588 235.384 447.251 234.795C443.382 234.094 421.401 233.309 419.41 231.963H419.438V231.992Z" fill="#F2F1E6"/>
<path d="M311.551 213.937H324.056L330.645 220.526L331.122 236.507L328.851 244.806C328.486 246.124 327.449 247.133 326.131 247.414C320.047 248.703 310.318 248.507 305.748 246.853L300.112 233.199L300.589 223.329L308.103 215.423C309 214.47 310.262 213.937 311.551 213.937Z" stroke="#231F20" stroke-width="1.119" stroke-miterlimit="10"/>
<path d="M305.382 218.31H321.251C322.485 218.31 323.494 219.319 323.494 220.553C323.494 221.786 322.485 222.796 321.251 222.796H301.121" stroke="#231F20" stroke-width="1.119" stroke-miterlimit="10"/>
<path d="M300.476 225.569H321.252C322.486 225.569 323.495 226.578 323.495 227.812C323.495 229.046 322.486 230.055 321.252 230.055H300.252" stroke="#231F20" stroke-width="1.119" stroke-miterlimit="10"/>
<path d="M300.139 232.831H321.251C322.485 232.831 323.494 233.84 323.494 235.074C323.494 236.307 322.485 237.317 321.251 237.317H301.821" stroke="#231F20" stroke-width="1.119" stroke-miterlimit="10"/>
<path d="M328.289 243.992L343.794 244.468L344.747 242.59" stroke="#231F20" stroke-width="1.119" stroke-miterlimit="10"/>
<path d="M333.588 243.739L333.728 250.524C333.728 251.477 334.093 252.431 334.682 253.16L342.841 263.281H372.897L378.532 257.645L379.009 249.655" stroke="#231F20" stroke-width="1.119" stroke-miterlimit="10"/>
<path d="M367.683 213.459H346.207C342.8 213.459 340.038 216.221 340.038 219.627V236.422C340.038 239.828 342.8 242.59 346.207 242.59H367.683C371.09 242.59 373.851 239.828 373.851 236.422V219.627C373.851 216.221 371.09 213.459 367.683 213.459Z" stroke="#231F20" stroke-width="1.119" stroke-miterlimit="10"/>
<path d="M373.878 199.412H346.121C344.836 199.412 343.794 200.454 343.794 201.739V207.879C343.794 209.164 344.836 210.206 346.121 210.206H373.878C375.164 210.206 376.205 209.164 376.205 207.879V201.739C376.205 200.454 375.164 199.412 373.878 199.412Z" stroke="#231F20" stroke-width="1.119" stroke-miterlimit="10"/>
<path d="M324.083 213.933L329.999 206.84C330.728 205.97 331.793 205.494 332.915 205.494H344.298" stroke="#231F20" stroke-width="1.119" stroke-miterlimit="10"/>
<path d="M376.206 204.542L383.72 211.131H396.897" stroke="#231F20" stroke-width="1.119" stroke-miterlimit="10"/>
<path d="M396.897 242.113H369.644" stroke="#231F20" stroke-width="1.119" stroke-miterlimit="10"/>
<path d="M373.878 219.627H378.589C379.682 219.627 379.682 238.356 378.589 238.356H373.43" stroke="#231F20" stroke-width="1.119" stroke-miterlimit="10"/>
<path d="M379.569 229.438C382.205 229.803 391.373 229.606 396.896 229.494" stroke="#231F20" stroke-width="1.119" stroke-miterlimit="10"/>
<path d="M379.037 223.354H396.897" stroke="#231F20" stroke-width="1.119" stroke-miterlimit="10"/>
<path d="M344.747 220.55C342.252 220.55 342.252 236.98 344.747 236.98H368.242C371.999 236.98 371.999 220.074 368.242 220.074C368.242 220.074 343.822 220.55 344.747 220.55V220.55Z" stroke="#231F20" stroke-width="1.119" stroke-miterlimit="10"/>
<path d="M364.934 242.59L368.691 249.655H382.317L390.308 242.113" stroke="#231F20" stroke-width="1.119" stroke-miterlimit="10"/>
<path d="M342.869 263.255L344.27 257.62H370.57L372.925 263.255" stroke="#231F20" stroke-width="1.119" stroke-miterlimit="10"/>
<path d="M348.982 258.094V251.057C348.982 250.664 366.365 250.664 366.365 251.057V257.646" stroke="#231F20" stroke-width="1.119" stroke-miterlimit="10"/>
<path d="M346.149 225.233C344.438 225.233 344.438 231.822 346.149 231.822H368.214C369.7 231.822 369.7 225.233 368.214 225.233H346.149Z" stroke="#231F20" stroke-width="0.699377" stroke-miterlimit="10"/>
<path d="M391.261 220.076C393.072 220.076 394.541 218.607 394.541 216.796C394.541 214.984 393.072 213.515 391.261 213.515C389.449 213.515 387.98 214.984 387.98 216.796C387.98 218.607 389.449 220.076 391.261 220.076Z" stroke="#231F20" stroke-width="1.119" stroke-miterlimit="10"/>
<path d="M391.261 238.833C393.072 238.833 394.541 237.364 394.541 235.553C394.541 233.741 393.072 232.272 391.261 232.272C389.449 232.272 387.98 233.741 387.98 235.553C387.98 237.364 389.449 238.833 391.261 238.833Z" stroke="#231F20" stroke-width="1.119" stroke-miterlimit="10"/>
<path d="M400.655 206.45C402.729 206.45 404.412 208.132 404.412 210.207V242.618C404.412 244.693 402.729 246.375 400.655 246.375C398.58 246.375 396.898 244.693 396.898 242.618V210.207C396.898 208.132 398.58 206.45 400.655 206.45Z" stroke="#231F20" stroke-width="1.119" stroke-miterlimit="10"/>
<path d="M404.411 210.206C404.411 210.206 411.645 210.262 412.149 210.43C412.654 210.599 417.028 215.842 417.084 217.299C417.14 218.757 416.607 242.141 416.607 242.141H404.383" stroke="#231F20" stroke-width="1.119" stroke-miterlimit="10"/>
<path d="M415.85 214.889H459.364C461.86 214.889 461.86 225.683 459.364 225.683H417.084" stroke="#231F20" stroke-width="1.119" stroke-miterlimit="10"/>
<path d="M449.018 214.889C447.196 216.767 446.495 224.337 449.018 226.16" stroke="#231F20" stroke-width="0.699377" stroke-miterlimit="10"/>
<path d="M460.318 216.796H521.86C524.215 216.432 529.486 214.469 530.748 214.217C532.626 213.852 539.075 214.217 541.626 214.217C544.178 214.217 545.103 215.787 545.103 217.693V223.862C545.103 225.768 543.533 227.338 541.626 227.338C541.626 227.338 532.823 227.591 530.748 227.338C529.738 227.226 523.009 224.478 521.383 224.282H460.318" stroke="#231F20" stroke-width="1.119" stroke-miterlimit="10"/>
<path d="M545.327 218.392L547.429 215.813C548.13 215.532 549.364 215.532 550.261 215.869C550.962 218.7 551.215 222.85 550.037 226.158C550.037 226.158 547.794 226.327 547.289 225.738C546.785 225.149 545.13 222.85 545.13 222.85" stroke="#231F20" stroke-width="1.119" stroke-miterlimit="10"/>
<path d="M530.749 214.188C529.15 217.468 528.898 224.281 530.749 227.338" stroke="#231F20" stroke-width="1.119" stroke-miterlimit="10"/>
<path d="M522.952 216.601C521.55 218.002 521.018 223.105 522.952 224.703" stroke="#231F20" stroke-width="1.119" stroke-miterlimit="10"/>
<path d="M415.85 229.438H459.364C461.86 229.438 461.86 240.233 459.364 240.233H417.084" stroke="#231F20" stroke-width="1.119" stroke-miterlimit="10"/>
<path d="M449.018 229.438C447.196 231.317 446.495 238.887 449.018 240.709" stroke="#231F20" stroke-width="0.699377" stroke-miterlimit="10"/>
<path d="M460.318 231.317H521.86C524.215 230.953 529.486 228.99 530.748 228.738C532.626 228.373 539.075 228.738 541.626 228.738C544.178 228.738 545.103 230.308 545.103 232.215V238.383C545.103 240.289 543.533 241.859 541.626 241.859C541.626 241.859 532.823 242.112 530.748 241.859C529.738 241.747 523.009 239 521.383 238.803H460.318" stroke="#231F20" stroke-width="1.119" stroke-miterlimit="10"/>
<path d="M545.327 232.972L547.429 230.393C548.13 230.112 549.364 230.112 550.261 230.449C550.962 233.281 551.215 237.43 550.037 240.739C550.037 240.739 547.794 240.907 547.289 240.318C546.785 239.729 545.13 237.43 545.13 237.43" stroke="#231F20" stroke-width="1.119" stroke-miterlimit="10"/>
<path d="M530.749 228.739C529.15 232.019 528.898 238.832 530.749 241.888" stroke="#231F20" stroke-width="1.119" stroke-miterlimit="10"/>
<path d="M522.952 231.177C521.55 232.579 521.018 237.681 522.952 239.28" stroke="#231F20" stroke-width="1.119" stroke-miterlimit="10"/>
<path d="M411.448 242.116L411.981 217.499L417.084 217.303" stroke="#231F20" stroke-width="1.119" stroke-miterlimit="10"/>
<path d="M411.813 225.233L408.112 227L407.916 235.635L411.617 238.803" stroke="#231F20" stroke-width="0.699377" stroke-miterlimit="10"/>
<path d="M408.111 228.907L404.045 228.739" stroke="#231F20" stroke-width="0.699377" stroke-miterlimit="10"/>
<path d="M404.045 232.272L408.111 232.468" stroke="#231F20" stroke-width="0.699377" stroke-miterlimit="10"/>
<path d="M404.412 210.093L411.982 217.299" stroke="#231F20" stroke-width="0.699377" stroke-miterlimit="10"/>
<path d="M417.085 222.065L414.281 224.897V237.233L416.72 239.7" stroke="#231F20" stroke-width="0.699377" stroke-miterlimit="10"/>
<path d="M390.308 232.467V238.944" stroke="#231F20" stroke-width="0.699377" stroke-miterlimit="10"/>
<path d="M392.242 220.103L392.411 213.599" stroke="#231F20" stroke-width="0.699377" stroke-miterlimit="10"/>
<path d="M348.896 199.496L348.728 195.627C348.728 194.225 353.495 194.225 353.495 195.627V199.86" stroke="#231F20" stroke-width="1.119" stroke-miterlimit="10"/>
<path d="M330.42 221.169H340.29" stroke="#231F20" stroke-width="1.119" stroke-miterlimit="10"/>
<path d="M331.121 235.635C331.654 235.27 340.289 235.635 340.289 235.635" stroke="#231F20" stroke-width="1.119" stroke-miterlimit="10"/>
<path d="M343.794 244.468L348.981 251.057" stroke="#231F20" stroke-width="0.699377" stroke-miterlimit="10"/>
<path d="M371.271 250.077V241.414" stroke="#231F20" stroke-width="0.699377" stroke-miterlimit="10"/>
</g>
<defs>
<linearGradient id="paint0_linear_19_32692" x1="545.101" y1="220.89" x2="550.848" y2="220.89" gradientUnits="userSpaceOnUse">
<stop stop-color="#DED9D6"/>
<stop offset="0.04" stop-color="#CFCBC9"/>
<stop offset="0.11" stop-color="#A8A8A7"/>
<stop offset="0.21" stop-color="#697071"/>
<stop offset="0.26" stop-color="#465053"/>
<stop offset="0.37" stop-color="#878D8E"/>
<stop offset="0.46" stop-color="#B7B9BA"/>
<stop offset="0.53" stop-color="#D4D5D5"/>
<stop offset="0.57" stop-color="#E0E0E0"/>
<stop offset="0.63" stop-color="#D6D7D7"/>
<stop offset="0.73" stop-color="#BCBFC1"/>
<stop offset="0.86" stop-color="#91989D"/>
<stop offset="0.88" stop-color="#8B9298"/>
<stop offset="1" stop-color="#A7A9AC"/>
</linearGradient>
<linearGradient id="paint1_linear_19_32692" x1="545.101" y1="235.469" x2="550.848" y2="235.469" gradientUnits="userSpaceOnUse">
<stop stop-color="#DED9D6"/>
<stop offset="0.04" stop-color="#CFCBC9"/>
<stop offset="0.11" stop-color="#A8A8A7"/>
<stop offset="0.21" stop-color="#697071"/>
<stop offset="0.26" stop-color="#465053"/>
<stop offset="0.37" stop-color="#878D8E"/>
<stop offset="0.46" stop-color="#B7B9BA"/>
<stop offset="0.53" stop-color="#D4D5D5"/>
<stop offset="0.57" stop-color="#E0E0E0"/>
<stop offset="0.63" stop-color="#D6D7D7"/>
<stop offset="0.73" stop-color="#BCBFC1"/>
<stop offset="0.86" stop-color="#91989D"/>
<stop offset="0.88" stop-color="#8B9298"/>
<stop offset="1" stop-color="#A7A9AC"/>
</linearGradient>
<radialGradient id="paint2_radial_19_32692" cx="0" cy="0" r="1" gradientUnits="userSpaceOnUse" gradientTransform="translate(537.279 235.299) scale(7.28973 7.28972)">
<stop stop-color="#AEB0B7"/>
<stop offset="0.32" stop-color="#A9A9A8"/>
<stop offset="0.35" stop-color="#A9A9A6"/>
<stop offset="0.5" stop-color="#9A9D9E"/>
<stop offset="0.67" stop-color="#838C92"/>
<stop offset="1" stop-color="#657076"/>
</radialGradient>
<radialGradient id="paint3_radial_19_32692" cx="0" cy="0" r="1" gradientUnits="userSpaceOnUse" gradientTransform="translate(537.279 220.72) scale(7.28973 7.28972)">
<stop stop-color="#AEB0B7"/>
<stop offset="0.32" stop-color="#A9A9A8"/>
<stop offset="0.35" stop-color="#A9A9A6"/>
<stop offset="0.5" stop-color="#9A9D9E"/>
<stop offset="0.67" stop-color="#838C92"/>
<stop offset="1" stop-color="#657076"/>
</radialGradient>
<radialGradient id="paint4_radial_19_32692" cx="0" cy="0" r="1" gradientUnits="userSpaceOnUse" gradientTransform="translate(526.203 220.778) scale(5.63551 5.63551)">
<stop stop-color="#AEB0B7"/>
<stop offset="0.32" stop-color="#A9A9A8"/>
<stop offset="0.35" stop-color="#A9A9A6"/>
<stop offset="0.5" stop-color="#9A9D9E"/>
<stop offset="0.67" stop-color="#838C92"/>
<stop offset="1" stop-color="#657076"/>
</radialGradient>
<radialGradient id="paint5_radial_19_32692" cx="0" cy="0" r="1" gradientUnits="userSpaceOnUse" gradientTransform="translate(526.203 235.327) scale(5.63551 5.63551)">
<stop stop-color="#AEB0B7"/>
<stop offset="0.32" stop-color="#A9A9A8"/>
<stop offset="0.35" stop-color="#A9A9A6"/>
<stop offset="0.5" stop-color="#9A9D9E"/>
<stop offset="0.67" stop-color="#838C92"/>
<stop offset="1" stop-color="#657076"/>
</radialGradient>
<linearGradient id="paint6_linear_19_32692" x1="460.682" y1="235.188" x2="522.953" y2="235.188" gradientUnits="userSpaceOnUse">
<stop stop-color="#DED9D6"/>
<stop offset="0.04" stop-color="#CFCBC9"/>
<stop offset="0.11" stop-color="#A8A8A7"/>
<stop offset="0.21" stop-color="#697071"/>
<stop offset="0.26" stop-color="#465053"/>
<stop offset="0.37" stop-color="#878D8E"/>
<stop offset="0.46" stop-color="#B7B9BA"/>
<stop offset="0.53" stop-color="#D4D5D5"/>
<stop offset="0.57" stop-color="#E0E0E0"/>
<stop offset="0.63" stop-color="#D6D7D7"/>
<stop offset="0.73" stop-color="#BCBFC1"/>
<stop offset="0.86" stop-color="#91989D"/>
<stop offset="0.88" stop-color="#8B9298"/>
<stop offset="1" stop-color="#A7A9AC"/>
</linearGradient>
<linearGradient id="paint7_linear_19_32692" x1="460.682" y1="220.609" x2="522.953" y2="220.609" gradientUnits="userSpaceOnUse">
<stop stop-color="#DED9D6"/>
<stop offset="0.04" stop-color="#CFCBC9"/>
<stop offset="0.11" stop-color="#A8A8A7"/>
<stop offset="0.21" stop-color="#697071"/>
<stop offset="0.26" stop-color="#465053"/>
<stop offset="0.37" stop-color="#878D8E"/>
<stop offset="0.46" stop-color="#B7B9BA"/>
<stop offset="0.53" stop-color="#D4D5D5"/>
<stop offset="0.57" stop-color="#E0E0E0"/>
<stop offset="0.63" stop-color="#D6D7D7"/>
<stop offset="0.73" stop-color="#BCBFC1"/>
<stop offset="0.86" stop-color="#91989D"/>
<stop offset="0.88" stop-color="#8B9298"/>
<stop offset="1" stop-color="#A7A9AC"/>
</linearGradient>
<linearGradient id="paint8_linear_19_32692" x1="447.391" y1="220.3" x2="461.242" y2="220.3" gradientUnits="userSpaceOnUse">
<stop offset="0.03" stop-color="#9B9B98"/>
<stop offset="0.13" stop-color="#A4A5A6"/>
<stop offset="0.22" stop-color="#AEB0B7"/>
<stop offset="0.35" stop-color="#9FA3A9"/>
<stop offset="0.61" stop-color="#788187"/>
<stop offset="0.72" stop-color="#657076"/>
<stop offset="1" stop-color="#8B949A"/>
</linearGradient>
<linearGradient id="paint9_linear_19_32692" x1="447.392" y1="234.852" x2="461.243" y2="234.852" gradientUnits="userSpaceOnUse">
<stop offset="0.03" stop-color="#9B9B98"/>
<stop offset="0.13" stop-color="#A4A5A6"/>
<stop offset="0.22" stop-color="#AEB0B7"/>
<stop offset="0.35" stop-color="#9FA3A9"/>
<stop offset="0.61" stop-color="#788187"/>
<stop offset="0.72" stop-color="#657076"/>
<stop offset="1" stop-color="#8B949A"/>
</linearGradient>
<linearGradient id="paint10_linear_19_32692" x1="415.878" y1="220.301" x2="449.018" y2="220.301" gradientUnits="userSpaceOnUse">
<stop offset="0.03" stop-color="#9B9B98"/>
<stop offset="0.13" stop-color="#A4A5A6"/>
<stop offset="0.22" stop-color="#AEB0B7"/>
<stop offset="0.35" stop-color="#9FA3A9"/>
<stop offset="0.61" stop-color="#788187"/>
<stop offset="0.72" stop-color="#657076"/>
<stop offset="1" stop-color="#8B949A"/>
</linearGradient>
<linearGradient id="paint11_linear_19_32692" x1="416.634" y1="234.849" x2="449.018" y2="234.849" gradientUnits="userSpaceOnUse">
<stop offset="0.03" stop-color="#9B9B98"/>
<stop offset="0.13" stop-color="#A4A5A6"/>
<stop offset="0.22" stop-color="#AEB0B7"/>
<stop offset="0.35" stop-color="#9FA3A9"/>
<stop offset="0.61" stop-color="#788187"/>
<stop offset="0.72" stop-color="#657076"/>
<stop offset="1" stop-color="#8B949A"/>
</linearGradient>
<linearGradient id="paint12_linear_19_32692" x1="411.448" y1="229.72" x2="417.111" y2="229.72" gradientUnits="userSpaceOnUse">
<stop stop-color="#45413D"/>
<stop offset="0.12" stop-color="#363430"/>
<stop offset="0.25" stop-color="#2E2C28"/>
<stop offset="0.47" stop-color="#2C2A26"/>
</linearGradient>
<linearGradient id="paint13_linear_19_32692" x1="404.523" y1="213.824" x2="417.083" y2="213.824" gradientUnits="userSpaceOnUse">
<stop stop-color="#DED9D6"/>
<stop offset="0.04" stop-color="#CFCBC9"/>
<stop offset="0.11" stop-color="#A8A8A7"/>
<stop offset="0.21" stop-color="#697071"/>
<stop offset="0.26" stop-color="#465053"/>
<stop offset="0.37" stop-color="#878D8E"/>
<stop offset="0.46" stop-color="#B7B9BA"/>
<stop offset="0.53" stop-color="#D4D5D5"/>
<stop offset="0.57" stop-color="#E0E0E0"/>
<stop offset="0.63" stop-color="#D6D7D7"/>
<stop offset="0.73" stop-color="#BCBFC1"/>
<stop offset="0.86" stop-color="#91989D"/>
<stop offset="0.88" stop-color="#8B9298"/>
<stop offset="1" stop-color="#A7A9AC"/>
</linearGradient>
<linearGradient id="paint14_linear_19_32692" x1="414.251" y1="230.871" x2="416.999" y2="230.871" gradientUnits="userSpaceOnUse">
<stop stop-color="#DED9D6"/>
<stop offset="0.04" stop-color="#CFCBC9"/>
<stop offset="0.11" stop-color="#A8A8A7"/>
<stop offset="0.21" stop-color="#697071"/>
<stop offset="0.26" stop-color="#465053"/>
<stop offset="0.37" stop-color="#878D8E"/>
<stop offset="0.46" stop-color="#B7B9BA"/>
<stop offset="0.53" stop-color="#D4D5D5"/>
<stop offset="0.57" stop-color="#E0E0E0"/>
<stop offset="0.63" stop-color="#D6D7D7"/>
<stop offset="0.73" stop-color="#BCBFC1"/>
<stop offset="0.86" stop-color="#91989D"/>
<stop offset="0.88" stop-color="#8B9298"/>
<stop offset="1" stop-color="#A7A9AC"/>
</linearGradient>
<linearGradient id="paint15_linear_19_32692" x1="404.383" y1="219.57" x2="411.981" y2="219.57" gradientUnits="userSpaceOnUse">
<stop offset="0.03" stop-color="#9B9B98"/>
<stop offset="0.13" stop-color="#A4A5A6"/>
<stop offset="0.22" stop-color="#AEB0B7"/>
<stop offset="0.35" stop-color="#9FA3A9"/>
<stop offset="0.61" stop-color="#788187"/>
<stop offset="0.72" stop-color="#657076"/>
<stop offset="1" stop-color="#8B949A"/>
</linearGradient>
<linearGradient id="paint16_linear_19_32692" x1="407.915" y1="231.962" x2="411.812" y2="231.962" gradientUnits="userSpaceOnUse">
<stop stop-color="#45413D"/>
<stop offset="0.12" stop-color="#363430"/>
<stop offset="0.25" stop-color="#2E2C28"/>
<stop offset="0.47" stop-color="#2C2A26"/>
</linearGradient>
<linearGradient id="paint17_linear_19_32692" x1="404.382" y1="237.207" x2="411.532" y2="237.207" gradientUnits="userSpaceOnUse">
<stop offset="0.03" stop-color="#9B9B98"/>
<stop offset="0.13" stop-color="#A4A5A6"/>
<stop offset="0.22" stop-color="#AEB0B7"/>
<stop offset="0.35" stop-color="#9FA3A9"/>
<stop offset="0.61" stop-color="#788187"/>
<stop offset="0.72" stop-color="#657076"/>
<stop offset="1" stop-color="#8B949A"/>
</linearGradient>
<linearGradient id="paint18_linear_19_32692" x1="404.382" y1="230.592" x2="408.055" y2="230.592" gradientUnits="userSpaceOnUse">
<stop stop-color="#45413D"/>
<stop offset="0.07" stop-color="#363430"/>
<stop offset="0.15" stop-color="#2E2C28"/>
<stop offset="0.29" stop-color="#2C2A26"/>
</linearGradient>
<linearGradient id="paint19_linear_19_32692" x1="396.867" y1="226.384" x2="404.381" y2="226.384" gradientUnits="userSpaceOnUse">
<stop stop-color="#DED9D6"/>
<stop offset="0.04" stop-color="#CFCBC9"/>
<stop offset="0.11" stop-color="#A8A8A7"/>
<stop offset="0.21" stop-color="#697071"/>
<stop offset="0.26" stop-color="#465053"/>
<stop offset="0.37" stop-color="#878D8E"/>
<stop offset="0.46" stop-color="#B7B9BA"/>
<stop offset="0.53" stop-color="#D4D5D5"/>
<stop offset="0.57" stop-color="#E0E0E0"/>
<stop offset="0.63" stop-color="#D6D7D7"/>
<stop offset="0.73" stop-color="#BCBFC1"/>
<stop offset="0.86" stop-color="#91989D"/>
<stop offset="0.88" stop-color="#8B9298"/>
<stop offset="1" stop-color="#A7A9AC"/>
</linearGradient>
<linearGradient id="paint20_linear_19_32692" x1="371.27" y1="235.775" x2="396.868" y2="235.775" gradientUnits="userSpaceOnUse">
<stop stop-color="#DED9D6"/>
<stop offset="0.04" stop-color="#CFCBC9"/>
<stop offset="0.11" stop-color="#A8A8A7"/>
<stop offset="0.21" stop-color="#697071"/>
<stop offset="0.26" stop-color="#465053"/>
<stop offset="0.37" stop-color="#878D8E"/>
<stop offset="0.46" stop-color="#B7B9BA"/>
<stop offset="0.53" stop-color="#D4D5D5"/>
<stop offset="0.57" stop-color="#E0E0E0"/>
<stop offset="0.63" stop-color="#D6D7D7"/>
<stop offset="0.73" stop-color="#BCBFC1"/>
<stop offset="0.86" stop-color="#91989D"/>
<stop offset="0.88" stop-color="#8B9298"/>
<stop offset="1" stop-color="#A7A9AC"/>
</linearGradient>
<linearGradient id="paint21_linear_19_32692" x1="379.233" y1="226.494" x2="396.869" y2="226.494" gradientUnits="userSpaceOnUse">
<stop stop-color="#45413D"/>
<stop offset="0.07" stop-color="#363430"/>
<stop offset="0.15" stop-color="#2E2C28"/>
<stop offset="0.29" stop-color="#2C2A26"/>
</linearGradient>
<linearGradient id="paint22_linear_19_32692" x1="324.055" y1="213.965" x2="396.868" y2="213.965" gradientUnits="userSpaceOnUse">
<stop stop-color="#DED9D6"/>
<stop offset="0.04" stop-color="#CFCBC9"/>
<stop offset="0.11" stop-color="#A8A8A7"/>
<stop offset="0.21" stop-color="#697071"/>
<stop offset="0.26" stop-color="#465053"/>
<stop offset="0.37" stop-color="#878D8E"/>
<stop offset="0.46" stop-color="#B7B9BA"/>
<stop offset="0.53" stop-color="#D4D5D5"/>
<stop offset="0.57" stop-color="#E0E0E0"/>
<stop offset="0.63" stop-color="#D6D7D7"/>
<stop offset="0.73" stop-color="#BCBFC1"/>
<stop offset="0.86" stop-color="#91989D"/>
<stop offset="0.88" stop-color="#8B9298"/>
<stop offset="1" stop-color="#A7A9AC"/>
</linearGradient>
<linearGradient id="paint23_linear_19_32692" x1="392.241" y1="216.795" x2="394.512" y2="216.795" gradientUnits="userSpaceOnUse">
<stop stop-color="#DED9D6"/>
<stop offset="0.04" stop-color="#CFCBC9"/>
<stop offset="0.11" stop-color="#A8A8A7"/>
<stop offset="0.21" stop-color="#697071"/>
<stop offset="0.26" stop-color="#465053"/>
<stop offset="0.37" stop-color="#878D8E"/>
<stop offset="0.46" stop-color="#B7B9BA"/>
<stop offset="0.53" stop-color="#D4D5D5"/>
<stop offset="0.57" stop-color="#E0E0E0"/>
<stop offset="0.63" stop-color="#D6D7D7"/>
<stop offset="0.73" stop-color="#BCBFC1"/>
<stop offset="0.86" stop-color="#91989D"/>
<stop offset="0.88" stop-color="#8B9298"/>
<stop offset="1" stop-color="#A7A9AC"/>
</linearGradient>
<linearGradient id="paint24_linear_19_32692" x1="387.952" y1="216.766" x2="392.41" y2="216.766" gradientUnits="userSpaceOnUse">
<stop stop-color="#8C8E91"/>
<stop offset="0.11" stop-color="#76777A"/>
<stop offset="0.22" stop-color="#666769"/>
<stop offset="0.33" stop-color="#5C5E60"/>
<stop offset="0.49" stop-color="#5A5B5D"/>
<stop offset="0.71" stop-color="#575759"/>
<stop offset="0.89" stop-color="#4D4E50"/>
<stop offset="1" stop-color="#434345"/>
</linearGradient>
<linearGradient id="paint25_linear_19_32692" x1="387.952" y1="235.552" x2="394.513" y2="235.552" gradientUnits="userSpaceOnUse">
<stop stop-color="#8C8E91"/>
<stop offset="0.11" stop-color="#76777A"/>
<stop offset="0.22" stop-color="#666769"/>
<stop offset="0.33" stop-color="#5C5E60"/>
<stop offset="0.49" stop-color="#5A5B5D"/>
<stop offset="0.71" stop-color="#575759"/>
<stop offset="0.89" stop-color="#4D4E50"/>
<stop offset="1" stop-color="#434345"/>
</linearGradient>
<linearGradient id="paint26_linear_19_32692" x1="371.27" y1="245.87" x2="390.307" y2="245.87" gradientUnits="userSpaceOnUse">
<stop stop-color="#45413D"/>
<stop offset="0.12" stop-color="#363430"/>
<stop offset="0.25" stop-color="#2E2C28"/>
<stop offset="0.47" stop-color="#2C2A26"/>
</linearGradient>
<linearGradient id="paint27_linear_19_32692" x1="373.541" y1="229.021" x2="379.401" y2="229.021" gradientUnits="userSpaceOnUse">
<stop stop-color="#DED9D6"/>
<stop offset="0.04" stop-color="#CFCBC9"/>
<stop offset="0.11" stop-color="#A8A8A7"/>
<stop offset="0.21" stop-color="#697071"/>
<stop offset="0.26" stop-color="#465053"/>
<stop offset="0.37" stop-color="#878D8E"/>
<stop offset="0.46" stop-color="#B7B9BA"/>
<stop offset="0.53" stop-color="#D4D5D5"/>
<stop offset="0.57" stop-color="#E0E0E0"/>
<stop offset="0.63" stop-color="#D6D7D7"/>
<stop offset="0.73" stop-color="#BCBFC1"/>
<stop offset="0.86" stop-color="#91989D"/>
<stop offset="0.88" stop-color="#8B9298"/>
<stop offset="1" stop-color="#A7A9AC"/>
</linearGradient>
<linearGradient id="paint28_linear_19_32692" x1="343.793" y1="252.822" x2="379.036" y2="252.822" gradientUnits="userSpaceOnUse">
<stop stop-color="#8C8E91"/>
<stop offset="0.11" stop-color="#76777A"/>
<stop offset="0.22" stop-color="#666769"/>
<stop offset="0.33" stop-color="#5C5E60"/>
<stop offset="0.49" stop-color="#5A5B5D"/>
<stop offset="0.71" stop-color="#575759"/>
<stop offset="0.89" stop-color="#4D4E50"/>
<stop offset="1" stop-color="#434345"/>
</linearGradient>
<linearGradient id="paint29_linear_19_32692" x1="343.793" y1="204.767" x2="376.204" y2="204.767" gradientUnits="userSpaceOnUse">
<stop offset="0.03" stop-color="#BFA730"/>
<stop offset="0.17" stop-color="#C5B323"/>
<stop offset="0.45" stop-color="#CFC80F"/>
<stop offset="0.73" stop-color="#D5D403"/>
<stop offset="1" stop-color="#D8D900"/>
</linearGradient>
<linearGradient id="paint30_linear_19_32692" x1="340.037" y1="228.038" x2="373.85" y2="228.038" gradientUnits="userSpaceOnUse">
<stop stop-color="#8C8E91"/>
<stop offset="0.11" stop-color="#76777A"/>
<stop offset="0.22" stop-color="#666769"/>
<stop offset="0.33" stop-color="#5C5E60"/>
<stop offset="0.49" stop-color="#5A5B5D"/>
<stop offset="0.71" stop-color="#575759"/>
<stop offset="0.89" stop-color="#4D4E50"/>
<stop offset="1" stop-color="#434345"/>
</linearGradient>
<linearGradient id="paint31_linear_19_32692" x1="342.841" y1="260.451" x2="372.925" y2="260.451" gradientUnits="userSpaceOnUse">
<stop stop-color="#8C8E91"/>
<stop offset="0.11" stop-color="#76777A"/>
<stop offset="0.22" stop-color="#666769"/>
<stop offset="0.33" stop-color="#5C5E60"/>
<stop offset="0.49" stop-color="#5A5B5D"/>
<stop offset="0.71" stop-color="#575759"/>
<stop offset="0.89" stop-color="#4D4E50"/>
<stop offset="1" stop-color="#434345"/>
</linearGradient>
<linearGradient id="paint32_linear_19_32692" x1="364.933" y1="245.87" x2="371.27" y2="245.87" gradientUnits="userSpaceOnUse">
<stop stop-color="#45413D"/>
<stop offset="0.07" stop-color="#363430"/>
<stop offset="0.15" stop-color="#2E2C28"/>
<stop offset="0.29" stop-color="#2C2A26"/>
</linearGradient>
<linearGradient id="paint33_linear_19_32692" x1="370.036" y1="241.778" x2="371.27" y2="241.778" gradientUnits="userSpaceOnUse">
<stop stop-color="#DED9D6"/>
<stop offset="0.04" stop-color="#CFCBC9"/>
<stop offset="0.11" stop-color="#A8A8A7"/>
<stop offset="0.21" stop-color="#697071"/>
<stop offset="0.26" stop-color="#465053"/>
<stop offset="0.37" stop-color="#878D8E"/>
<stop offset="0.46" stop-color="#B7B9BA"/>
<stop offset="0.53" stop-color="#D4D5D5"/>
<stop offset="0.57" stop-color="#E0E0E0"/>
<stop offset="0.63" stop-color="#D6D7D7"/>
<stop offset="0.73" stop-color="#BCBFC1"/>
<stop offset="0.86" stop-color="#91989D"/>
<stop offset="0.88" stop-color="#8B9298"/>
<stop offset="1" stop-color="#A7A9AC"/>
</linearGradient>
<linearGradient id="paint34_linear_19_32692" x1="342.84" y1="228.513" x2="371.046" y2="228.513" gradientUnits="userSpaceOnUse">
<stop stop-color="#DED9D6"/>
<stop offset="0.04" stop-color="#CFCBC9"/>
<stop offset="0.11" stop-color="#A8A8A7"/>
<stop offset="0.21" stop-color="#697071"/>
<stop offset="0.26" stop-color="#465053"/>
<stop offset="0.37" stop-color="#878D8E"/>
<stop offset="0.46" stop-color="#B7B9BA"/>
<stop offset="0.53" stop-color="#D4D5D5"/>
<stop offset="0.57" stop-color="#E0E0E0"/>
<stop offset="0.63" stop-color="#D6D7D7"/>
<stop offset="0.73" stop-color="#BCBFC1"/>
<stop offset="0.86" stop-color="#91989D"/>
<stop offset="0.88" stop-color="#8B9298"/>
<stop offset="1" stop-color="#A7A9AC"/>
</linearGradient>
<linearGradient id="paint35_linear_19_32692" x1="344.859" y1="228.514" x2="369.336" y2="228.514" gradientUnits="userSpaceOnUse">
<stop stop-color="#DED9D6"/>
<stop offset="0.04" stop-color="#CFCBC9"/>
<stop offset="0.11" stop-color="#A8A8A7"/>
<stop offset="0.21" stop-color="#697071"/>
<stop offset="0.26" stop-color="#465053"/>
<stop offset="0.37" stop-color="#878D8E"/>
<stop offset="0.46" stop-color="#B7B9BA"/>
<stop offset="0.53" stop-color="#D4D5D5"/>
<stop offset="0.57" stop-color="#E0E0E0"/>
<stop offset="0.63" stop-color="#D6D7D7"/>
<stop offset="0.73" stop-color="#BCBFC1"/>
<stop offset="0.86" stop-color="#91989D"/>
<stop offset="0.88" stop-color="#8B9298"/>
<stop offset="1" stop-color="#A7A9AC"/>
</linearGradient>
<linearGradient id="paint36_linear_19_32692" x1="348.952" y1="254.197" x2="366.335" y2="254.197" gradientUnits="userSpaceOnUse">
<stop stop-color="#DED9D6"/>
<stop offset="0.04" stop-color="#CFCBC9"/>
<stop offset="0.11" stop-color="#A8A8A7"/>
<stop offset="0.21" stop-color="#697071"/>
<stop offset="0.26" stop-color="#465053"/>
<stop offset="0.37" stop-color="#878D8E"/>
<stop offset="0.46" stop-color="#B7B9BA"/>
<stop offset="0.53" stop-color="#D4D5D5"/>
<stop offset="0.57" stop-color="#E0E0E0"/>
<stop offset="0.63" stop-color="#D6D7D7"/>
<stop offset="0.73" stop-color="#BCBFC1"/>
<stop offset="0.86" stop-color="#91989D"/>
<stop offset="0.88" stop-color="#8B9298"/>
<stop offset="1" stop-color="#A7A9AC"/>
</linearGradient>
<linearGradient id="paint37_linear_19_32692" x1="348.727" y1="196.973" x2="353.466" y2="196.973" gradientUnits="userSpaceOnUse">
<stop stop-color="#DED9D6"/>
<stop offset="0.04" stop-color="#CFCBC9"/>
<stop offset="0.11" stop-color="#A8A8A7"/>
<stop offset="0.21" stop-color="#697071"/>
<stop offset="0.26" stop-color="#465053"/>
<stop offset="0.37" stop-color="#878D8E"/>
<stop offset="0.46" stop-color="#B7B9BA"/>
<stop offset="0.53" stop-color="#D4D5D5"/>
<stop offset="0.57" stop-color="#E0E0E0"/>
<stop offset="0.63" stop-color="#D6D7D7"/>
<stop offset="0.73" stop-color="#BCBFC1"/>
<stop offset="0.86" stop-color="#91989D"/>
<stop offset="0.88" stop-color="#8B9298"/>
<stop offset="1" stop-color="#A7A9AC"/>
</linearGradient>
<linearGradient id="paint38_linear_19_32692" x1="333.56" y1="253.72" x2="348.952" y2="253.72" gradientUnits="userSpaceOnUse">
<stop stop-color="#45413D"/>
<stop offset="0.12" stop-color="#363430"/>
<stop offset="0.25" stop-color="#2E2C28"/>
<stop offset="0.47" stop-color="#2C2A26"/>
</linearGradient>
<linearGradient id="paint39_linear_19_32692" x1="329.045" y1="239.983" x2="344.774" y2="239.983" gradientUnits="userSpaceOnUse">
<stop stop-color="#DED9D6"/>
<stop offset="0.04" stop-color="#CFCBC9"/>
<stop offset="0.11" stop-color="#A8A8A7"/>
<stop offset="0.21" stop-color="#697071"/>
<stop offset="0.26" stop-color="#465053"/>
<stop offset="0.37" stop-color="#878D8E"/>
<stop offset="0.46" stop-color="#B7B9BA"/>
<stop offset="0.53" stop-color="#D4D5D5"/>
<stop offset="0.57" stop-color="#E0E0E0"/>
<stop offset="0.63" stop-color="#D6D7D7"/>
<stop offset="0.73" stop-color="#BCBFC1"/>
<stop offset="0.86" stop-color="#91989D"/>
<stop offset="0.88" stop-color="#8B9298"/>
<stop offset="1" stop-color="#A7A9AC"/>
</linearGradient>
<linearGradient id="paint40_linear_19_32692" x1="330.671" y1="228.373" x2="340.036" y2="228.373" gradientUnits="userSpaceOnUse">
<stop offset="0.03" stop-color="#BFA730"/>
<stop offset="0.17" stop-color="#C5B323"/>
<stop offset="0.45" stop-color="#CFC80F"/>
<stop offset="0.73" stop-color="#D5D403"/>
<stop offset="1" stop-color="#D8D900"/>
</linearGradient>
<radialGradient id="paint41_radial_19_32692" cx="0" cy="0" r="1" gradientUnits="userSpaceOnUse" gradientTransform="translate(315.615 231.096) scale(16.3458 16.3458)">
<stop stop-color="#AEB0B7"/>
<stop offset="0.32" stop-color="#A9A9A8"/>
<stop offset="0.35" stop-color="#A9A9A6"/>
<stop offset="0.5" stop-color="#9A9D9E"/>
<stop offset="0.67" stop-color="#838C92"/>
<stop offset="1" stop-color="#657076"/>
</radialGradient>
<linearGradient id="paint42_linear_19_32692" x1="301.12" y1="220.526" x2="323.494" y2="220.526" gradientUnits="userSpaceOnUse">
<stop stop-color="#8C8E91"/>
<stop offset="0.11" stop-color="#76777A"/>
<stop offset="0.22" stop-color="#666769"/>
<stop offset="0.33" stop-color="#5C5E60"/>
<stop offset="0.49" stop-color="#5A5B5D"/>
<stop offset="0.71" stop-color="#575759"/>
<stop offset="0.89" stop-color="#4D4E50"/>
<stop offset="1" stop-color="#434345"/>
</linearGradient>
<linearGradient id="paint43_linear_19_32692" x1="300.25" y1="227.812" x2="323.493" y2="227.812" gradientUnits="userSpaceOnUse">
<stop stop-color="#8C8E91"/>
<stop offset="0.11" stop-color="#76777A"/>
<stop offset="0.22" stop-color="#666769"/>
<stop offset="0.33" stop-color="#5C5E60"/>
<stop offset="0.49" stop-color="#5A5B5D"/>
<stop offset="0.71" stop-color="#575759"/>
<stop offset="0.89" stop-color="#4D4E50"/>
<stop offset="1" stop-color="#434345"/>
</linearGradient>
<linearGradient id="paint44_linear_19_32692" x1="300.111" y1="235.074" x2="323.495" y2="235.074" gradientUnits="userSpaceOnUse">
<stop stop-color="#8C8E91"/>
<stop offset="0.11" stop-color="#76777A"/>
<stop offset="0.22" stop-color="#666769"/>
<stop offset="0.33" stop-color="#5C5E60"/>
<stop offset="0.49" stop-color="#5A5B5D"/>
<stop offset="0.71" stop-color="#575759"/>
<stop offset="0.89" stop-color="#4D4E50"/>
<stop offset="1" stop-color="#434345"/>
</linearGradient>
<clipPath id="clip0_19_32692">
<rect width="251.86" height="69.8411" fill="white" transform="translate(299.551 194)"/>
</clipPath>
</defs>
</svg>
