<svg width="800" height="800" viewBox="0 0 800 800" fill="none" xmlns="http://www.w3.org/2000/svg">
<g clip-path="url(#clip0_19_32692)">
<path d="M278.132 243.317C284.917 243.317 285.198 297.008 278.132 297.008C274.656 297.008 274.656 243.317 278.132 243.317Z" fill="url(#paint0_radial_19_32692)"/>
<path d="M270.001 297.121C267.786 297.177 265.15 297.261 262.178 297.373C260.216 291.934 260.328 243.317 262.543 243.317H278.132C274.655 243.317 274.655 297.008 278.132 297.008C278.132 297.008 275.104 297.008 270.001 297.121V297.121Z" fill="url(#paint1_linear_19_32692)"/>
<path d="M212.188 302.869C214.01 302.532 215.804 302.196 217.599 301.887C231.029 299.644 244.094 298.439 254.636 297.766C257.356 297.598 259.879 297.457 262.206 297.345C265.178 297.205 267.814 297.149 270.029 297.093L260.804 306.429L246.001 302.897L230.496 309.261L211.487 314.196L205.15 319.831L203.047 319.691C198.842 313.327 200.58 306.485 201.001 305.224C204.702 304.355 208.431 303.57 212.188 302.841V302.869Z" fill="url(#paint2_linear_19_32692)"/>
<path d="M254.749 236.393L262.543 243.318C260.356 243.318 260.216 291.935 262.179 297.375C259.852 297.487 257.328 297.599 254.609 297.795C252.422 295.019 252.45 236.421 254.749 236.421V236.393Z" fill="url(#paint3_linear_19_32692)"/>
<path d="M223.403 237.038C232.066 236.421 241.879 236.169 252.982 236.365C253.571 236.365 254.16 236.365 254.748 236.365C252.477 236.365 252.421 294.963 254.608 297.739C244.066 298.412 231.029 299.617 217.571 301.86L217.459 301.328L211.403 291.991C206.861 286.804 200.468 284.337 197.104 284.197L184.543 283.131H184.262L184.543 272.73L170.692 262.356L161.16 262.496V262.356L162.029 255.402C162.029 255.402 167.496 248.113 187.935 242.561C193.571 241.019 200.356 239.589 208.487 238.524C210.954 238.187 213.533 237.879 216.225 237.627C218.496 237.402 220.879 237.206 223.347 237.01L223.403 237.038ZM248.664 284.898C249.814 284.898 249.814 251.113 248.664 251.113H233.945C231.646 251.113 231.646 284.898 233.945 284.898H248.664Z" fill="url(#paint4_linear_19_32692)"/>
<path d="M253.01 235.523V236.364C241.879 236.168 232.066 236.42 223.403 237.037L217.711 228.037C224.692 227.336 232.571 226.999 240.898 226.859C246.954 226.775 253.038 235.523 253.038 235.523H253.01Z" fill="url(#paint5_linear_19_32692)"/>
<path d="M248.666 251.113C249.815 251.113 249.815 284.898 248.666 284.898H238.292V284.029C236.133 272.337 235.824 261.263 238.292 251.113H248.666V251.113Z" fill="url(#paint6_linear_19_32692)"/>
<path d="M238.29 284.029V284.898H233.944C231.645 284.898 231.645 251.113 233.944 251.113H238.29C235.823 261.263 236.131 272.337 238.29 284.029Z" fill="url(#paint7_linear_19_32692)"/>
<path d="M217.682 228.036L223.374 237.036C220.907 237.204 218.523 237.428 216.252 237.653L210.561 229.466L210.477 228.989C212.748 228.625 215.159 228.316 217.682 228.036V228.036Z" fill="url(#paint8_linear_19_32692)"/>
<path d="M217.487 301.355L217.599 301.887C215.777 302.196 213.982 302.532 212.188 302.869L208.515 296.981C205.487 292.13 200.244 289.046 194.524 288.794L184.599 288.345H184.179L184.319 283.159H184.599L197.16 284.224C200.496 284.364 206.889 286.831 211.459 292.018L217.515 301.355H217.487Z" fill="url(#paint9_linear_19_32692)"/>
<path d="M210.561 229.468L216.253 237.655C213.533 237.908 210.954 238.216 208.515 238.553L202.879 230.506C205.206 229.917 207.758 229.412 210.505 228.992L210.589 229.468H210.561Z" fill="url(#paint10_linear_19_32692)"/>
<path d="M193.907 307.075C191.72 307.664 189.533 308.309 187.402 308.982C186.477 309.29 185.58 309.57 184.711 309.879L182.86 304.804L182.636 303.963H183.702L184.122 288.346H184.543L194.468 288.795C200.187 289.047 205.43 292.103 208.459 296.982L212.131 302.869C208.374 303.598 204.645 304.383 200.945 305.253C198.561 305.813 196.178 306.43 193.879 307.103L193.907 307.075Z" fill="url(#paint11_linear_19_32692)"/>
<path d="M202.88 230.504L208.515 238.55C200.384 239.616 193.627 241.046 187.964 242.588C187.543 236.728 193.263 232.915 202.852 230.504H202.88Z" fill="url(#paint12_linear_19_32692)"/>
<path d="M203.02 319.692L195.03 319.215C193.095 314.056 193.768 307.944 193.908 307.075C196.235 306.402 198.619 305.785 200.974 305.225C200.553 306.486 198.815 313.327 203.02 319.692Z" fill="#D8D900"/>
<path d="M195.029 319.215L193.851 319.131L189.449 322.888C186.281 317.308 187.291 309.766 187.375 308.981C189.534 308.28 191.692 307.664 193.879 307.075C193.739 307.944 193.066 314.056 195.001 319.215H195.029Z" fill="#D8D900"/>
<path d="M189.448 322.887L164.747 344.055C164.859 339.345 164.158 334.494 162.252 330.821C165.364 327.625 166.626 323.756 167.299 317.391L167.355 316.915L168.14 316.971C173.186 314.251 178.794 311.924 184.738 309.905C185.607 309.597 186.504 309.317 187.429 309.008C187.317 309.793 186.336 317.335 189.504 322.915L189.448 322.887Z" fill="url(#paint13_linear_19_32692)"/>
<path d="M182.86 304.803L184.711 309.877C178.795 311.896 173.187 314.223 168.113 316.943L167.328 316.887L156.87 316.074V304.831L182.636 303.961L182.86 304.803V304.803Z" fill="url(#paint14_linear_19_32692)"/>
<path d="M184.57 272.758L184.29 283.159L184.15 288.346L183.729 303.935H182.664L175.094 276.234L166.43 274.496C166.43 274.496 152.131 265.72 149.383 262.748L156.898 262.608L161.215 262.524L170.748 262.384L184.598 272.758H184.57Z" fill="url(#paint15_linear_19_32692)"/>
<path d="M118.515 272.756L118.767 263.223L149.356 262.746C152.103 265.746 166.403 274.494 166.403 274.494L175.066 276.232L182.636 303.961L156.87 304.831L130.879 305.672L117.898 294.401L118.515 272.756V272.756ZM175.907 292.69L172.178 287.083C170.216 284.083 166.851 282.316 163.262 282.373C163.01 282.373 162.758 282.373 162.477 282.373L129.141 270.961L128.328 282.485C127.206 282.401 126.561 282.345 126.561 282.232V292.634H175.907V292.69Z" fill="url(#paint16_linear_19_32692)"/>
<path d="M162.477 282.43C162.757 282.43 163.009 282.43 163.262 282.43C166.85 282.374 170.215 284.141 172.178 287.141L175.907 292.748H126.561V282.346C126.561 282.346 127.206 282.514 128.327 282.599C134.075 282.879 152.495 282.599 162.477 282.458V282.43Z" fill="url(#paint17_linear_19_32692)"/>
<path d="M145.824 323.953C135.253 323.448 115.655 322.943 97.7675 323.055V321.934L97.1507 317.756C124.627 317.981 156.87 317.42 156.87 316.102L167.328 316.915L167.272 317.392C166.599 323.756 165.366 327.626 162.225 330.822C160.375 327.289 157.431 324.822 152.945 324.513C151.824 324.345 149.328 324.149 145.824 323.953V323.953Z" fill="url(#paint18_linear_19_32692)"/>
<path d="M162.253 330.823C164.16 334.495 164.861 339.346 164.749 344.056L157.571 350.196C148.263 345.654 144.59 338.505 145.851 323.953C149.356 324.15 151.851 324.346 152.973 324.514C157.459 324.823 160.403 327.29 162.253 330.823Z" fill="url(#paint19_linear_19_32692)"/>
<path d="M129.141 271.019L162.478 282.43C152.524 282.571 134.076 282.851 128.328 282.571L129.141 271.047V271.019Z" fill="url(#paint20_linear_19_32692)"/>
<path d="M157.57 350.197L143.074 362.618L128.299 342.907H96.252C96.252 339.094 93.1679 335.982 89.3268 335.982C85.4857 335.982 82.4016 339.094 82.4016 342.907C82.4016 346.72 85.5137 349.861 89.3268 349.861L89.1866 360.094C87.7287 360.094 86.2707 360.15 84.7567 360.234C83.467 375.823 85.4296 387.515 85.4296 387.515V388.188C81.252 388.019 77.2427 387.823 73.682 387.627C70.4296 367.272 70.4016 345.907 72.7848 323.73C79.6539 323.309 88.5137 323.085 97.7661 323.029C115.654 322.917 135.252 323.421 145.822 323.926C144.56 338.477 148.261 345.627 157.542 350.169L157.57 350.197Z" fill="url(#paint21_linear_19_32692)"/>
<path d="M96.2247 272.758C96.2247 268.917 93.1406 265.833 89.2995 265.833C85.4584 265.833 82.3743 268.917 82.3743 272.758C82.3743 276.599 85.4864 279.684 89.2995 279.684C93.1126 279.684 96.2247 276.599 96.2247 272.758ZM131.103 252.151C133.318 252.235 135.477 252.291 137.524 252.403C148.907 252.936 156.842 253.945 156.87 255.431V262.609L149.356 262.749L118.767 263.226L118.514 272.758L117.898 294.403L130.879 305.674L156.87 304.833V316.076C156.87 317.394 124.627 317.955 97.15 317.73C88.4303 317.674 80.2154 317.562 73.6266 317.31C70.4023 296.955 70.3743 275.534 72.7855 253.328C74.4958 253.188 76.3462 253.048 78.2528 252.936C83.0191 252.599 88.4023 252.375 94.0098 252.207C106.262 251.842 119.748 251.814 131.103 252.151V252.151ZM80.8602 311.506L110.72 310.216C110.72 310.216 110.075 294.627 109.43 286.188H80.2434C79.5705 293.983 79.2621 301.497 80.8883 311.506H80.8602Z" fill="url(#paint22_linear_19_32692)"/>
<path d="M143.047 362.618L136.739 368.029L136.066 377.758L129.561 383.618L124.767 389.59C124.767 389.59 124.374 389.59 123.701 389.59L123.757 387.543C124.346 369.908 110.159 360.263 89.1874 360.123L89.3276 349.889C93.1687 349.889 96.2528 346.777 96.2528 342.936H128.3L143.075 362.646L143.047 362.618Z" fill="url(#paint23_linear_19_32692)"/>
<path d="M130.879 242.45L137.524 252.403C135.477 252.291 133.346 252.235 131.103 252.151L113.356 242.001L109.206 229.02L130.879 242.45V242.45Z" fill="url(#paint24_linear_19_32692)"/>
<path d="M113.356 242.027L131.104 252.177C119.749 251.84 106.263 251.868 94.0103 252.233C87.9822 244.326 89.6645 232.859 94.4869 219.962L109.179 229.046L113.328 242.027H113.356Z" fill="url(#paint25_linear_19_32692)"/>
<path d="M89.1885 360.094C110.161 360.234 124.347 369.879 123.759 387.514L123.703 389.561C119.189 389.421 101.245 388.86 85.4035 388.187V387.514C85.4035 387.514 83.497 375.823 84.7586 360.234C86.2727 360.15 87.7306 360.094 89.1885 360.094V360.094Z" fill="url(#paint26_linear_19_32692)"/>
<path d="M110.748 310.215L80.8883 311.505C79.2901 301.496 79.5986 293.982 80.2434 286.187H109.458C110.131 294.627 110.748 310.215 110.748 310.215V310.215Z" fill="url(#paint27_linear_19_32692)"/>
<path d="M89.2998 265.833C93.1409 265.833 96.225 268.917 96.225 272.758C96.225 276.599 93.1409 279.683 89.2998 279.683C85.4587 279.683 82.3746 276.599 82.3746 272.758C82.3746 268.917 85.4867 265.833 89.2998 265.833ZM92.5521 272.562C92.5521 270.403 90.8138 268.665 88.6549 268.665C86.4961 268.665 84.7577 270.431 84.7577 272.562C84.7577 274.693 86.5241 276.459 88.6549 276.459C90.7858 276.459 92.5521 274.721 92.5521 272.562Z" fill="url(#paint28_linear_19_32692)"/>
<path d="M89.2998 335.981C93.1409 335.981 96.225 339.093 96.225 342.907C96.225 346.72 93.1409 349.86 89.2998 349.86C85.4587 349.86 82.3746 346.748 82.3746 342.907C82.3746 339.065 85.4867 335.981 89.2998 335.981ZM93.197 342.71C93.197 340.551 91.4587 338.813 89.2998 338.813C87.1409 338.813 85.4026 340.579 85.4026 342.71C85.4026 344.841 87.1409 346.607 89.2998 346.607C91.4587 346.607 93.197 344.869 93.197 342.71Z" fill="url(#paint29_linear_19_32692)"/>
<path d="M85.8506 222.542L94.5141 219.935C89.6917 232.832 88.0095 244.327 94.0375 252.206C88.402 252.374 83.0468 252.627 78.2805 252.935L85.8506 222.542Z" fill="url(#paint30_linear_19_32692)"/>
<path d="M89.3005 338.783C91.4594 338.783 93.1977 340.55 93.1977 342.681C93.1977 344.811 91.4594 346.578 89.3005 346.578C87.1417 346.578 85.4033 344.839 85.4033 342.681C85.4033 340.522 87.1417 338.783 89.3005 338.783Z" fill="url(#paint31_radial_19_32692)"/>
<path d="M88.6555 268.636C90.8143 268.636 92.5526 270.402 92.5526 272.533C92.5526 274.664 90.8143 276.43 88.6555 276.43C86.4966 276.43 84.7583 274.692 84.7583 272.533C84.7583 270.374 86.5246 268.636 88.6555 268.636Z" fill="url(#paint32_radial_19_32692)"/>
<path d="M55.9066 296.87C55.5982 292.861 55.486 288.88 55.5421 284.898C55.5982 280.861 55.8505 276.852 56.2991 272.842C56.6636 269.366 57.1402 265.917 57.757 262.496C58.1496 260.422 58.5421 258.347 58.9907 256.3C58.9907 255.067 64.458 254.085 72.7851 253.328C70.3739 275.534 70.4019 296.954 73.6262 317.31C64.8225 317.029 58.9907 316.609 58.9907 316.048C58.2617 313.132 57.701 310.244 57.2243 307.356C56.6075 303.824 56.1869 300.319 55.9066 296.814V296.87Z" fill="url(#paint33_linear_19_32692)"/>
<path d="M55.9066 367.018C55.5982 363.008 55.486 359.027 55.5421 355.046C55.5982 351.008 55.8505 346.999 56.2991 342.99C56.6636 339.513 57.1402 336.064 57.757 332.644C58.1496 330.569 58.5421 328.494 58.9907 326.448C58.9907 325.13 64.458 324.289 72.757 323.728C70.3739 345.905 70.4019 367.27 73.6542 387.625C65.1309 387.177 58.9907 386.672 58.9907 386.223C58.2617 383.307 57.701 380.419 57.2243 377.532C56.6075 373.999 56.1869 370.494 55.9066 366.99V367.018Z" fill="url(#paint34_linear_19_32692)"/>
<path d="M57.2536 262.384L57.7582 262.496C57.1414 265.916 56.6648 269.365 56.3003 272.842L55.5433 272.758L37.347 277.973H36.8143C36.9265 275.337 37.0947 273.15 37.347 271.888L57.2536 262.384Z" fill="url(#paint35_linear_19_32692)"/>
<path d="M57.2536 332.534L57.7582 332.646C57.1414 336.066 56.6648 339.515 56.3003 342.992L55.5433 342.907L37.347 348.122H36.8143C36.9265 345.487 37.0947 343.3 37.347 342.038L57.2536 332.534V332.534Z" fill="url(#paint36_linear_19_32692)"/>
<path d="M57.2244 307.383L37.3459 297.01C37.1216 295.636 36.9253 293.449 36.8412 290.982H37.3459L55.9066 296.869C56.187 300.374 56.6356 303.879 57.2244 307.411V307.383Z" fill="url(#paint37_linear_19_32692)"/>
<path d="M57.2244 377.533L37.3459 367.159C37.1216 365.758 36.9253 363.599 36.8412 361.131H37.3459L55.9066 367.019C56.187 370.524 56.6356 374.029 57.2244 377.561V377.533Z" fill="url(#paint38_linear_19_32692)"/>
<path d="M55.5427 272.756L56.2997 272.841C55.8511 276.85 55.5707 280.859 55.5427 284.897H36.7016C36.7016 282.485 36.7576 280.102 36.8418 277.943H37.3745L55.5707 272.756H55.5427Z" fill="url(#paint39_linear_19_32692)"/>
<path d="M55.5427 342.909L56.2997 342.993C55.8511 347.002 55.5707 351.012 55.5427 355.049H36.7016C36.7016 352.638 36.7576 350.255 36.8418 348.096H37.3745L55.5707 342.909H55.5427Z" fill="url(#paint40_linear_19_32692)"/>
<path d="M55.9072 296.869L37.3464 290.953H36.8418C36.7296 289.075 36.7016 287 36.7016 284.897H55.5427C55.4586 288.85 55.5988 292.832 55.9072 296.869V296.869Z" fill="url(#paint41_linear_19_32692)"/>
<path d="M55.9072 367.021L37.3464 361.106H36.8418C36.7296 359.227 36.7016 357.152 36.7016 355.049H55.5427C55.4586 359.003 55.5988 362.984 55.9072 367.021V367.021Z" fill="url(#paint42_linear_19_32692)"/>
<g style="mix-blend-mode:soft-light">
<path d="M168.224 258.991C168.224 258.991 182.327 238.327 249.028 241.131L247.149 247.72C247.149 247.72 234.925 241.131 229.29 248.673C223.654 256.215 227.411 282.486 227.411 282.486C227.411 282.486 231.168 258.991 211.43 258.066C191.691 257.14 186.056 267.458 186.056 267.458L168.196 258.991H168.224Z" fill="#F2F1E6"/>
</g>
<g style="mix-blend-mode:soft-light">
<path d="M64.8785 258.992C67.7103 255.235 124.065 257.113 124.065 257.113C124.065 257.113 111.841 262.749 112.794 268.384C103.458 256.552 54 276.066 60.1683 295.637C60.1683 295.637 62.0468 262.749 64.8785 258.992Z" fill="#F2F1E6"/>
</g>
<g style="mix-blend-mode:soft-light">
<path d="M77.1028 325.72L141.925 328.552C141.925 328.552 156.953 324.795 158.832 342.655C158.832 342.655 149.439 330.43 127.822 334.187C106.206 337.944 99.6448 340.776 99.6448 340.776C99.6448 328.243 78.028 328.243 78.028 340.776L61.1215 338.898C61.1215 338.898 55.4859 324.795 77.1028 325.748V325.72Z" fill="#F2F1E6"/>
</g>
<path d="M278.132 243.319C274.655 243.319 274.655 297.01 278.132 297.01" stroke="#231F20" stroke-width="1.119"/>
<path d="M156.87 283.16V282.571" stroke="#231F20" stroke-width="1.119"/>
<path d="M156.87 262.61V255.461C156.814 250.246 58.9636 251.115 58.9916 256.33C54.786 275.704 53.9729 295.526 58.9916 316.077C58.9916 318.376 156.87 318.376 156.87 316.077V304.834" stroke="#231F20" stroke-width="1.119"/>
<path d="M118.767 263.255L117.898 294.433L130.879 305.676L183.73 303.937L184.571 272.76L170.72 262.386L118.767 263.255Z" stroke="#231F20" stroke-width="1.119"/>
<path d="M57.2811 262.386L37.3465 271.891C36.4774 276.208 36.4774 291.797 37.3465 297.012L57.2531 307.414" stroke="#231F20" stroke-width="1.119"/>
<path d="M161.188 262.384L162.057 255.458C162.057 255.458 177.646 234.683 254.721 236.393L262.515 243.318H278.104C284.917 243.318 285.197 297.01 278.104 297.01C278.104 297.01 207.085 296.141 168.113 316.916L156.842 316.047" stroke="#231F20" stroke-width="1.119"/>
<path d="M233.944 251.115C231.645 251.115 231.645 284.9 233.944 284.9H248.664C249.813 284.9 249.813 251.115 248.664 251.115H233.944V251.115Z" stroke="#231F20" stroke-width="1.119"/>
<path d="M254.75 236.395C252.451 236.395 252.451 297.881 254.75 297.881" stroke="#231F20" stroke-width="1.119"/>
<path d="M262.543 243.319C260.244 243.319 260.244 297.88 262.543 297.88" stroke="#231F20" stroke-width="1.119"/>
<path d="M126.562 282.293V292.695H175.936L172.207 287.088C170.216 284.116 166.852 282.349 163.263 282.405C151.684 282.602 126.562 282.966 126.562 282.293V282.293Z" stroke="#231F20" stroke-width="1.119"/>
<path d="M128.299 283.163L129.169 271.051L164.664 283.163" stroke="#231F20" stroke-width="1.119"/>
<path d="M89.3281 279.685C93.1528 279.685 96.2534 276.585 96.2534 272.76C96.2534 268.935 93.1528 265.835 89.3281 265.835C85.5034 265.835 82.4029 268.935 82.4029 272.76C82.4029 276.585 85.5034 279.685 89.3281 279.685Z" stroke="#231F20" stroke-width="1.119"/>
<path d="M37.3468 284.899H55.543" stroke="#231F20" stroke-width="1.119"/>
<path d="M37.3468 277.974L55.543 272.759" stroke="#231F20" stroke-width="1.119"/>
<path d="M37.3468 290.956L56.4122 297.012" stroke="#231F20" stroke-width="1.119"/>
<path d="M137.805 252.853L130.879 242.451L94.515 219.937L85.8514 222.545L78.057 253.722" stroke="#231F20" stroke-width="1.119"/>
<path d="M94.5143 219.937C89.5516 233.199 87.9255 244.918 94.5143 252.853" stroke="#231F20" stroke-width="1.119"/>
<path d="M166.404 262.387C166.404 262.387 166.404 262.359 166.404 262.331" stroke="#231F20" stroke-width="1.119" stroke-linecap="round" stroke-linejoin="round"/>
<path d="M173.777 254.735C184.74 248.847 207.871 244.165 244.039 242.651" stroke="#231F20" stroke-width="1.119" stroke-linecap="round" stroke-linejoin="round"/>
<path d="M249.478 242.453H249.534" stroke="#231F20" stroke-width="1.119" stroke-linecap="round" stroke-linejoin="round"/>
<path d="M67.8799 312.178C67.8799 312.178 67.8799 312.123 67.8799 312.095" stroke="#231F20" stroke-width="1.119" stroke-linecap="round" stroke-linejoin="round"/>
<path d="M66.7305 301.329C65.553 287.535 65.8894 277.021 67.7679 263.03" stroke="#231F20" stroke-width="1.119" stroke-linecap="round" stroke-linejoin="round"/>
<path d="M68.525 257.703C68.525 257.703 68.525 257.647 68.525 257.62" stroke="#231F20" stroke-width="1.119" stroke-linecap="round" stroke-linejoin="round"/>
<path d="M188.047 243.319C186.084 231.039 210.196 227.31 240.869 226.861C246.925 226.777 252.981 235.525 252.981 235.525" stroke="#231F20" stroke-width="1.119"/>
<path d="M202.767 230.339L208.823 239.003" stroke="#231F20" stroke-width="1.119"/>
<path d="M210.562 229.471L216.618 238.134" stroke="#231F20" stroke-width="1.119"/>
<path d="M217.487 227.733L223.571 237.266" stroke="#231F20" stroke-width="1.119"/>
<path d="M238.292 251.115C235.824 261.265 236.133 272.339 238.292 284.031" stroke="#231F20" stroke-width="1.119"/>
<path d="M149.076 262.386C150.814 264.993 166.403 274.498 166.403 274.498L175.067 276.236L182.861 304.806" stroke="#231F20" stroke-width="1.119"/>
<path d="M184.571 283.161L197.132 284.254C200.496 284.394 206.889 286.862 211.431 292.048L217.487 301.357" stroke="#231F20" stroke-width="1.119"/>
<path d="M184.571 288.348L194.468 288.797C200.216 289.049 205.431 292.133 208.487 296.984L212.3 303.068" stroke="#231F20" stroke-width="1.119"/>
<path d="M72.8705 252.854C70.3752 275.424 70.4033 297.153 73.7397 317.816" stroke="#231F20" stroke-width="1.119"/>
<path d="M57.2811 332.536L37.3465 342.068C36.4774 346.386 36.4774 361.975 37.3465 367.19L57.2531 377.592" stroke="#231F20" stroke-width="1.119"/>
<path d="M89.3281 349.834C93.1528 349.834 96.2534 346.733 96.2534 342.909C96.2534 339.084 93.1528 335.983 89.3281 335.983C85.5034 335.983 82.4029 339.084 82.4029 342.909C82.4029 346.733 85.5034 349.834 89.3281 349.834Z" stroke="#231F20" stroke-width="1.119"/>
<path d="M37.3468 355.052H55.543" stroke="#231F20" stroke-width="1.119"/>
<path d="M37.3468 348.126L55.543 342.911" stroke="#231F20" stroke-width="1.119"/>
<path d="M37.3468 361.103L56.4122 367.159" stroke="#231F20" stroke-width="1.119"/>
<path d="M68.5248 382.326C68.5248 382.326 68.5248 382.27 68.5248 382.242" stroke="#231F20" stroke-width="1.119" stroke-linecap="round" stroke-linejoin="round"/>
<path d="M67.2628 371.506C65.8049 357.712 65.4124 347.198 67.1227 333.207" stroke="#231F20" stroke-width="1.119" stroke-linecap="round" stroke-linejoin="round"/>
<path d="M67.8803 327.85C67.8803 327.85 67.8803 327.795 67.8803 327.767" stroke="#231F20" stroke-width="1.119" stroke-linecap="round" stroke-linejoin="round"/>
<path d="M72.8705 323.001C70.3752 345.571 70.4033 367.3 73.7397 387.964" stroke="#231F20" stroke-width="1.119"/>
<path d="M270.533 296.592L260.776 307.386L245.272 303.152L227.664 310.666L210.758 315.601L206.524 319.835L193.851 319.134L184.823 328.414L136.767 368.031L136.122 377.788L128.356 383.984L127.655 391.021C127.655 391.021 59.0473 387.713 59.0473 386.227C54.0286 365.676 54.8417 345.853 59.0473 326.479C58.9912 321.264 144.561 323.227 153.029 324.517C162.786 325.162 164.244 336.18 163.599 345.909" stroke="#231F20" stroke-width="1.119"/>
<path d="M162.057 331.022C165.309 327.769 166.599 323.872 167.244 317.368" stroke="#231F20" stroke-width="1.119"/>
<path d="M97.1226 317.366L97.7674 321.908" stroke="#231F20" stroke-width="1.119"/>
<path d="M96.2539 342.909H128.301L143.217 362.844" stroke="#231F20" stroke-width="0.699377"/>
<path d="M96.2539 272.758H119.188" stroke="#231F20" stroke-width="0.699377"/>
<path d="M193.908 306.964C193.908 306.964 192.45 315.599 195.254 319.132" stroke="#231F20" stroke-width="1.119"/>
<path d="M201.029 305.029C201.029 305.029 195.365 312.739 205.094 320.534" stroke="#231F20" stroke-width="1.119"/>
<path d="M187.402 308.926C187.402 308.926 183.982 319.132 191.019 322.665" stroke="#231F20" stroke-width="1.119"/>
<path d="M89.3269 346.609C91.4792 346.609 93.2241 344.864 93.2241 342.712C93.2241 340.559 91.4792 338.814 89.3269 338.814C87.1745 338.814 85.4297 340.559 85.4297 342.712C85.4297 344.864 87.1745 346.609 89.3269 346.609Z" stroke="#231F20" stroke-width="0.699377"/>
<path d="M88.6555 276.459C90.8079 276.459 92.5527 274.714 92.5527 272.562C92.5527 270.409 90.8079 268.665 88.6555 268.665C86.5031 268.665 84.7583 270.409 84.7583 272.562C84.7583 274.714 86.5031 276.459 88.6555 276.459Z" stroke="#231F20" stroke-width="0.699377"/>
<path d="M85.4304 387.515C85.4304 387.515 83.4678 375.823 84.7856 360.235C108.169 358.945 122.692 368.45 123.169 390.992" stroke="#231F20" stroke-width="0.699377"/>
<path d="M80.2166 286.188C79.5717 293.982 79.2633 301.524 80.8614 311.533L110.749 310.244C110.749 310.244 110.104 294.655 109.46 286.216H80.2166V286.188Z" stroke="#231F20" stroke-width="1.119"/>
<path d="M108.814 227.731L113.356 242.03L131.524 252.404" stroke="#231F20" stroke-width="1.119"/>
<path d="M145.823 323.872C144.533 338.816 148.43 345.965 158.159 350.507" stroke="#231F20" stroke-width="0.699377"/>
</g>
<defs>
<radialGradient id="paint0_radial_19_32692" cx="0" cy="0" r="1" gradientUnits="userSpaceOnUse" gradientTransform="translate(279.422 270.177) scale(19.1776 19.1776)">
<stop offset="0.18" stop-color="#F4E8D9"/>
<stop offset="0.59" stop-color="#EDD089"/>
<stop offset="1" stop-color="#C08329"/>
</radialGradient>
<linearGradient id="paint1_linear_19_32692" x1="260.805" y1="270.345" x2="278.132" y2="270.345" gradientUnits="userSpaceOnUse">
<stop stop-color="#DED9D6"/>
<stop offset="0.06" stop-color="#CFCAC8"/>
<stop offset="0.18" stop-color="#A8A4A6"/>
<stop offset="0.26" stop-color="#8B878D"/>
<stop offset="0.52" stop-color="#F3F4F4"/>
<stop offset="0.58" stop-color="#E4E5E5"/>
<stop offset="0.7" stop-color="#BFBEC0"/>
<stop offset="0.86" stop-color="#847F84"/>
<stop offset="0.88" stop-color="#807B80"/>
<stop offset="1" stop-color="#A7A9AC"/>
</linearGradient>
<linearGradient id="paint2_linear_19_32692" x1="200.272" y1="308.476" x2="270.001" y2="308.476" gradientUnits="userSpaceOnUse">
<stop offset="0.03" stop-color="#9B9B98"/>
<stop offset="0.13" stop-color="#A4A5A6"/>
<stop offset="0.22" stop-color="#AEB0B7"/>
<stop offset="0.35" stop-color="#9FA3A9"/>
<stop offset="0.61" stop-color="#788187"/>
<stop offset="0.72" stop-color="#657076"/>
<stop offset="1" stop-color="#8B949A"/>
</linearGradient>
<linearGradient id="paint3_linear_19_32692" x1="253.011" y1="267.094" x2="262.543" y2="267.094" gradientUnits="userSpaceOnUse">
<stop stop-color="#85878D"/>
<stop offset="0.53" stop-color="#979899"/>
<stop offset="1" stop-color="#5D5C62"/>
</linearGradient>
<linearGradient id="paint4_linear_19_32692" x1="161.188" y1="269.085" x2="254.748" y2="269.085" gradientUnits="userSpaceOnUse">
<stop stop-color="#DED9D6"/>
<stop offset="0.04" stop-color="#CFCBC9"/>
<stop offset="0.11" stop-color="#A8A8A7"/>
<stop offset="0.21" stop-color="#697071"/>
<stop offset="0.26" stop-color="#465053"/>
<stop offset="0.37" stop-color="#878D8E"/>
<stop offset="0.46" stop-color="#B7B9BA"/>
<stop offset="0.53" stop-color="#D4D5D5"/>
<stop offset="0.57" stop-color="#E0E0E0"/>
<stop offset="0.63" stop-color="#D6D7D7"/>
<stop offset="0.73" stop-color="#BCBFC1"/>
<stop offset="0.86" stop-color="#91989D"/>
<stop offset="0.88" stop-color="#8B9298"/>
<stop offset="1" stop-color="#A7A9AC"/>
</linearGradient>
<linearGradient id="paint5_linear_19_32692" x1="217.683" y1="231.962" x2="253.01" y2="231.962" gradientUnits="userSpaceOnUse">
<stop stop-color="#85878D"/>
<stop offset="0.53" stop-color="#979899"/>
<stop offset="1" stop-color="#5D5C62"/>
</linearGradient>
<linearGradient id="paint6_linear_19_32692" x1="236.553" y1="268.02" x2="249.535" y2="268.02" gradientUnits="userSpaceOnUse">
<stop stop-color="#6D583F"/>
<stop offset="0.5" stop-color="#483318"/>
<stop offset="1" stop-color="#282913"/>
</linearGradient>
<linearGradient id="paint7_linear_19_32692" x1="232.234" y1="268.02" x2="238.29" y2="268.02" gradientUnits="userSpaceOnUse">
<stop stop-color="#DED9D6"/>
<stop offset="0.06" stop-color="#CFCAC8"/>
<stop offset="0.18" stop-color="#A8A4A6"/>
<stop offset="0.26" stop-color="#8B878D"/>
<stop offset="0.52" stop-color="#F3F4F4"/>
<stop offset="0.58" stop-color="#E4E5E5"/>
<stop offset="0.7" stop-color="#BFBEC0"/>
<stop offset="0.86" stop-color="#847F84"/>
<stop offset="0.88" stop-color="#807B80"/>
<stop offset="1" stop-color="#A7A9AC"/>
</linearGradient>
<linearGradient id="paint8_linear_19_32692" x1="210.477" y1="232.83" x2="223.402" y2="232.83" gradientUnits="userSpaceOnUse">
<stop stop-color="#DED9D6"/>
<stop offset="0.06" stop-color="#CFCAC8"/>
<stop offset="0.18" stop-color="#A8A4A6"/>
<stop offset="0.26" stop-color="#8B878D"/>
<stop offset="0.52" stop-color="#F3F4F4"/>
<stop offset="0.58" stop-color="#E4E5E5"/>
<stop offset="0.7" stop-color="#BFBEC0"/>
<stop offset="0.86" stop-color="#847F84"/>
<stop offset="0.88" stop-color="#807B80"/>
<stop offset="1" stop-color="#A7A9AC"/>
</linearGradient>
<linearGradient id="paint9_linear_19_32692" x1="184.151" y1="293" x2="217.599" y2="293" gradientUnits="userSpaceOnUse">
<stop offset="0.03" stop-color="#9B9B98"/>
<stop offset="0.13" stop-color="#A4A5A6"/>
<stop offset="0.22" stop-color="#AEB0B7"/>
<stop offset="0.35" stop-color="#9FA3A9"/>
<stop offset="0.61" stop-color="#788187"/>
<stop offset="0.72" stop-color="#657076"/>
<stop offset="1" stop-color="#8B949A"/>
</linearGradient>
<linearGradient id="paint10_linear_19_32692" x1="202.879" y1="233.758" x2="216.253" y2="233.758" gradientUnits="userSpaceOnUse">
<stop stop-color="#DED9D6"/>
<stop offset="0.06" stop-color="#CFCAC8"/>
<stop offset="0.18" stop-color="#A8A4A6"/>
<stop offset="0.26" stop-color="#8B878D"/>
<stop offset="0.52" stop-color="#F3F4F4"/>
<stop offset="0.58" stop-color="#E4E5E5"/>
<stop offset="0.7" stop-color="#BFBEC0"/>
<stop offset="0.86" stop-color="#847F84"/>
<stop offset="0.88" stop-color="#807B80"/>
<stop offset="1" stop-color="#A7A9AC"/>
</linearGradient>
<linearGradient id="paint11_linear_19_32692" x1="182.636" y1="299.112" x2="212.187" y2="299.112" gradientUnits="userSpaceOnUse">
<stop stop-color="#DED9D6"/>
<stop offset="0.04" stop-color="#CFCBC9"/>
<stop offset="0.11" stop-color="#A8A8A7"/>
<stop offset="0.21" stop-color="#697071"/>
<stop offset="0.26" stop-color="#465053"/>
<stop offset="0.37" stop-color="#878D8E"/>
<stop offset="0.46" stop-color="#B7B9BA"/>
<stop offset="0.53" stop-color="#D4D5D5"/>
<stop offset="0.57" stop-color="#E0E0E0"/>
<stop offset="0.63" stop-color="#D6D7D7"/>
<stop offset="0.73" stop-color="#BCBFC1"/>
<stop offset="0.86" stop-color="#91989D"/>
<stop offset="0.88" stop-color="#8B9298"/>
<stop offset="1" stop-color="#A7A9AC"/>
</linearGradient>
<linearGradient id="paint12_linear_19_32692" x1="187.964" y1="236.532" x2="208.515" y2="236.532" gradientUnits="userSpaceOnUse">
<stop stop-color="#85878D"/>
<stop offset="0.53" stop-color="#979899"/>
<stop offset="1" stop-color="#5D5C62"/>
</linearGradient>
<linearGradient id="paint13_linear_19_32692" x1="162.252" y1="326.531" x2="189.448" y2="326.531" gradientUnits="userSpaceOnUse">
<stop offset="0.03" stop-color="#9B9B98"/>
<stop offset="0.13" stop-color="#A4A5A6"/>
<stop offset="0.22" stop-color="#AEB0B7"/>
<stop offset="0.35" stop-color="#9FA3A9"/>
<stop offset="0.61" stop-color="#788187"/>
<stop offset="0.72" stop-color="#657076"/>
<stop offset="1" stop-color="#8B949A"/>
</linearGradient>
<linearGradient id="paint14_linear_19_32692" x1="156.87" y1="310.466" x2="184.711" y2="310.466" gradientUnits="userSpaceOnUse">
<stop stop-color="#DED9D6"/>
<stop offset="0.04" stop-color="#CFCBC9"/>
<stop offset="0.11" stop-color="#A8A8A7"/>
<stop offset="0.21" stop-color="#697071"/>
<stop offset="0.26" stop-color="#465053"/>
<stop offset="0.37" stop-color="#878D8E"/>
<stop offset="0.46" stop-color="#B7B9BA"/>
<stop offset="0.53" stop-color="#D4D5D5"/>
<stop offset="0.57" stop-color="#E0E0E0"/>
<stop offset="0.63" stop-color="#D6D7D7"/>
<stop offset="0.73" stop-color="#BCBFC1"/>
<stop offset="0.86" stop-color="#91989D"/>
<stop offset="0.88" stop-color="#8B9298"/>
<stop offset="1" stop-color="#A7A9AC"/>
</linearGradient>
<linearGradient id="paint15_linear_19_32692" x1="149.355" y1="283.188" x2="184.57" y2="283.188" gradientUnits="userSpaceOnUse">
<stop stop-color="#DED9D6"/>
<stop offset="0.06" stop-color="#CFCAC8"/>
<stop offset="0.18" stop-color="#A8A4A6"/>
<stop offset="0.26" stop-color="#8B878D"/>
<stop offset="0.52" stop-color="#F3F4F4"/>
<stop offset="0.58" stop-color="#E4E5E5"/>
<stop offset="0.7" stop-color="#BFBEC0"/>
<stop offset="0.86" stop-color="#847F84"/>
<stop offset="0.88" stop-color="#807B80"/>
<stop offset="1" stop-color="#A7A9AC"/>
</linearGradient>
<linearGradient id="paint16_linear_19_32692" x1="117.898" y1="284.195" x2="182.636" y2="284.195" gradientUnits="userSpaceOnUse">
<stop stop-color="#DED9D6"/>
<stop offset="0.06" stop-color="#CFCAC8"/>
<stop offset="0.18" stop-color="#A8A4A6"/>
<stop offset="0.26" stop-color="#8B878D"/>
<stop offset="0.52" stop-color="#F3F4F4"/>
<stop offset="0.58" stop-color="#E4E5E5"/>
<stop offset="0.7" stop-color="#BFBEC0"/>
<stop offset="0.86" stop-color="#847F84"/>
<stop offset="0.88" stop-color="#807B80"/>
<stop offset="1" stop-color="#A7A9AC"/>
</linearGradient>
<linearGradient id="paint17_linear_19_32692" x1="126.561" y1="287.505" x2="175.907" y2="287.505" gradientUnits="userSpaceOnUse">
<stop offset="0.03" stop-color="#9B9B98"/>
<stop offset="0.13" stop-color="#A4A5A6"/>
<stop offset="0.22" stop-color="#AEB0B7"/>
<stop offset="0.35" stop-color="#9FA3A9"/>
<stop offset="0.61" stop-color="#788187"/>
<stop offset="0.72" stop-color="#657076"/>
<stop offset="1" stop-color="#8B949A"/>
</linearGradient>
<linearGradient id="paint18_linear_19_32692" x1="97.1507" y1="323.448" x2="167.328" y2="323.448" gradientUnits="userSpaceOnUse">
<stop stop-color="#85878D"/>
<stop offset="0.53" stop-color="#979899"/>
<stop offset="1" stop-color="#5D5C62"/>
</linearGradient>
<linearGradient id="paint19_linear_19_32692" x1="145.599" y1="337.075" x2="164.749" y2="337.075" gradientUnits="userSpaceOnUse">
<stop offset="0.03" stop-color="#9B9B98"/>
<stop offset="0.13" stop-color="#A4A5A6"/>
<stop offset="0.22" stop-color="#AEB0B7"/>
<stop offset="0.35" stop-color="#9FA3A9"/>
<stop offset="0.61" stop-color="#788187"/>
<stop offset="0.72" stop-color="#657076"/>
<stop offset="1" stop-color="#8B949A"/>
</linearGradient>
<linearGradient id="paint20_linear_19_32692" x1="128.328" y1="276.851" x2="162.478" y2="276.851" gradientUnits="userSpaceOnUse">
<stop offset="0.03" stop-color="#9B9B98"/>
<stop offset="0.13" stop-color="#A4A5A6"/>
<stop offset="0.22" stop-color="#AEB0B7"/>
<stop offset="0.35" stop-color="#9FA3A9"/>
<stop offset="0.61" stop-color="#788187"/>
<stop offset="0.72" stop-color="#657076"/>
<stop offset="1" stop-color="#8B949A"/>
</linearGradient>
<linearGradient id="paint21_linear_19_32692" x1="71.1025" y1="355.608" x2="157.57" y2="355.608" gradientUnits="userSpaceOnUse">
<stop stop-color="#DED9D6"/>
<stop offset="0.04" stop-color="#CFCBC9"/>
<stop offset="0.11" stop-color="#A8A8A7"/>
<stop offset="0.21" stop-color="#697071"/>
<stop offset="0.26" stop-color="#465053"/>
<stop offset="0.37" stop-color="#878D8E"/>
<stop offset="0.46" stop-color="#B7B9BA"/>
<stop offset="0.53" stop-color="#D4D5D5"/>
<stop offset="0.57" stop-color="#E0E0E0"/>
<stop offset="0.63" stop-color="#D6D7D7"/>
<stop offset="0.73" stop-color="#BCBFC1"/>
<stop offset="0.86" stop-color="#91989D"/>
<stop offset="0.88" stop-color="#8B9298"/>
<stop offset="1" stop-color="#A7A9AC"/>
</linearGradient>
<linearGradient id="paint22_linear_19_32692" x1="71.1032" y1="284.87" x2="156.87" y2="284.87" gradientUnits="userSpaceOnUse">
<stop stop-color="#DED9D6"/>
<stop offset="0.04" stop-color="#CFCBC9"/>
<stop offset="0.11" stop-color="#A8A8A7"/>
<stop offset="0.21" stop-color="#697071"/>
<stop offset="0.26" stop-color="#465053"/>
<stop offset="0.37" stop-color="#878D8E"/>
<stop offset="0.46" stop-color="#B7B9BA"/>
<stop offset="0.53" stop-color="#D4D5D5"/>
<stop offset="0.57" stop-color="#E0E0E0"/>
<stop offset="0.63" stop-color="#D6D7D7"/>
<stop offset="0.73" stop-color="#BCBFC1"/>
<stop offset="0.86" stop-color="#91989D"/>
<stop offset="0.88" stop-color="#8B9298"/>
<stop offset="1" stop-color="#A7A9AC"/>
</linearGradient>
<linearGradient id="paint23_linear_19_32692" x1="89.1874" y1="366.263" x2="143.047" y2="366.263" gradientUnits="userSpaceOnUse">
<stop offset="0.03" stop-color="#9B9B98"/>
<stop offset="0.13" stop-color="#A4A5A6"/>
<stop offset="0.22" stop-color="#AEB0B7"/>
<stop offset="0.35" stop-color="#9FA3A9"/>
<stop offset="0.61" stop-color="#788187"/>
<stop offset="0.72" stop-color="#657076"/>
<stop offset="1" stop-color="#8B949A"/>
</linearGradient>
<linearGradient id="paint24_linear_19_32692" x1="109.206" y1="240.74" x2="137.524" y2="240.74" gradientUnits="userSpaceOnUse">
<stop stop-color="#DED9D6"/>
<stop offset="0.04" stop-color="#CFCBC9"/>
<stop offset="0.11" stop-color="#A8A8A7"/>
<stop offset="0.21" stop-color="#697071"/>
<stop offset="0.26" stop-color="#465053"/>
<stop offset="0.37" stop-color="#878D8E"/>
<stop offset="0.46" stop-color="#B7B9BA"/>
<stop offset="0.53" stop-color="#D4D5D5"/>
<stop offset="0.57" stop-color="#E0E0E0"/>
<stop offset="0.63" stop-color="#D6D7D7"/>
<stop offset="0.73" stop-color="#BCBFC1"/>
<stop offset="0.86" stop-color="#91989D"/>
<stop offset="0.88" stop-color="#8B9298"/>
<stop offset="1" stop-color="#A7A9AC"/>
</linearGradient>
<linearGradient id="paint25_linear_19_32692" x1="90.1692" y1="236.083" x2="131.104" y2="236.083" gradientUnits="userSpaceOnUse">
<stop stop-color="#DED9D6"/>
<stop offset="0.06" stop-color="#CFCAC8"/>
<stop offset="0.18" stop-color="#A8A4A6"/>
<stop offset="0.26" stop-color="#8B878D"/>
<stop offset="0.52" stop-color="#F3F4F4"/>
<stop offset="0.58" stop-color="#E4E5E5"/>
<stop offset="0.7" stop-color="#BFBEC0"/>
<stop offset="0.86" stop-color="#847F84"/>
<stop offset="0.88" stop-color="#807B80"/>
<stop offset="1" stop-color="#A7A9AC"/>
</linearGradient>
<linearGradient id="paint26_linear_19_32692" x1="84.31" y1="374.841" x2="123.787" y2="374.841" gradientUnits="userSpaceOnUse">
<stop stop-color="#85878D"/>
<stop offset="0.53" stop-color="#979899"/>
<stop offset="1" stop-color="#5D5C62"/>
</linearGradient>
<linearGradient id="paint27_linear_19_32692" x1="79.6827" y1="298.86" x2="110.748" y2="298.86" gradientUnits="userSpaceOnUse">
<stop offset="0.03" stop-color="#9B9B98"/>
<stop offset="0.13" stop-color="#A4A5A6"/>
<stop offset="0.22" stop-color="#AEB0B7"/>
<stop offset="0.35" stop-color="#9FA3A9"/>
<stop offset="0.61" stop-color="#788187"/>
<stop offset="0.72" stop-color="#657076"/>
<stop offset="1" stop-color="#8B949A"/>
</linearGradient>
<linearGradient id="paint28_linear_19_32692" x1="82.3746" y1="272.758" x2="96.225" y2="272.758" gradientUnits="userSpaceOnUse">
<stop stop-color="#DED9D6"/>
<stop offset="0.06" stop-color="#CFCAC8"/>
<stop offset="0.18" stop-color="#A8A4A6"/>
<stop offset="0.26" stop-color="#8B878D"/>
<stop offset="0.52" stop-color="#F3F4F4"/>
<stop offset="0.58" stop-color="#E4E5E5"/>
<stop offset="0.7" stop-color="#BFBEC0"/>
<stop offset="0.86" stop-color="#847F84"/>
<stop offset="0.88" stop-color="#807B80"/>
<stop offset="1" stop-color="#A7A9AC"/>
</linearGradient>
<linearGradient id="paint29_linear_19_32692" x1="82.3746" y1="342.935" x2="96.225" y2="342.935" gradientUnits="userSpaceOnUse">
<stop stop-color="#DED9D6"/>
<stop offset="0.06" stop-color="#CFCAC8"/>
<stop offset="0.18" stop-color="#A8A4A6"/>
<stop offset="0.26" stop-color="#8B878D"/>
<stop offset="0.52" stop-color="#F3F4F4"/>
<stop offset="0.58" stop-color="#E4E5E5"/>
<stop offset="0.7" stop-color="#BFBEC0"/>
<stop offset="0.86" stop-color="#847F84"/>
<stop offset="0.88" stop-color="#807B80"/>
<stop offset="1" stop-color="#A7A9AC"/>
</linearGradient>
<linearGradient id="paint30_linear_19_32692" x1="78.2805" y1="236.449" x2="94.5141" y2="236.449" gradientUnits="userSpaceOnUse">
<stop stop-color="#DED9D6"/>
<stop offset="0.04" stop-color="#CFCBC9"/>
<stop offset="0.11" stop-color="#A8A8A7"/>
<stop offset="0.21" stop-color="#697071"/>
<stop offset="0.26" stop-color="#465053"/>
<stop offset="0.37" stop-color="#878D8E"/>
<stop offset="0.46" stop-color="#B7B9BA"/>
<stop offset="0.53" stop-color="#D4D5D5"/>
<stop offset="0.57" stop-color="#E0E0E0"/>
<stop offset="0.63" stop-color="#D6D7D7"/>
<stop offset="0.73" stop-color="#BCBFC1"/>
<stop offset="0.86" stop-color="#91989D"/>
<stop offset="0.88" stop-color="#8B9298"/>
<stop offset="1" stop-color="#A7A9AC"/>
</linearGradient>
<radialGradient id="paint31_radial_19_32692" cx="0" cy="0" r="1" gradientUnits="userSpaceOnUse" gradientTransform="translate(89.3286 342.681) scale(3.89719)">
<stop stop-color="white"/>
<stop offset="0.14" stop-color="#FDF4CC"/>
<stop offset="0.29" stop-color="#FBEA9E"/>
<stop offset="0.43" stop-color="#FAE279"/>
<stop offset="0.58" stop-color="#F9DC5C"/>
<stop offset="0.72" stop-color="#F8D747"/>
<stop offset="0.86" stop-color="#F8D43B"/>
<stop offset="1" stop-color="#F8D437"/>
</radialGradient>
<radialGradient id="paint32_radial_19_32692" cx="0" cy="0" r="1" gradientUnits="userSpaceOnUse" gradientTransform="translate(88.6555 272.533) scale(3.8972 3.89719)">
<stop stop-color="white"/>
<stop offset="0.14" stop-color="#FDF4CC"/>
<stop offset="0.29" stop-color="#FBEA9E"/>
<stop offset="0.43" stop-color="#FAE279"/>
<stop offset="0.58" stop-color="#F9DC5C"/>
<stop offset="0.72" stop-color="#F8D747"/>
<stop offset="0.86" stop-color="#F8D43B"/>
<stop offset="1" stop-color="#F8D437"/>
</radialGradient>
<linearGradient id="paint33_linear_19_32692" x1="55.5141" y1="285.347" x2="73.6542" y2="285.347" gradientUnits="userSpaceOnUse">
<stop stop-color="#DED9D6"/>
<stop offset="0.06" stop-color="#CFCAC8"/>
<stop offset="0.18" stop-color="#A8A4A6"/>
<stop offset="0.26" stop-color="#8B878D"/>
<stop offset="0.52" stop-color="#F3F4F4"/>
<stop offset="0.58" stop-color="#E4E5E5"/>
<stop offset="0.7" stop-color="#BFBEC0"/>
<stop offset="0.86" stop-color="#847F84"/>
<stop offset="0.88" stop-color="#807B80"/>
<stop offset="1" stop-color="#A7A9AC"/>
</linearGradient>
<linearGradient id="paint34_linear_19_32692" x1="55.5141" y1="355.691" x2="73.6542" y2="355.691" gradientUnits="userSpaceOnUse">
<stop stop-color="#DED9D6"/>
<stop offset="0.06" stop-color="#CFCAC8"/>
<stop offset="0.18" stop-color="#A8A4A6"/>
<stop offset="0.26" stop-color="#8B878D"/>
<stop offset="0.52" stop-color="#F3F4F4"/>
<stop offset="0.58" stop-color="#E4E5E5"/>
<stop offset="0.7" stop-color="#BFBEC0"/>
<stop offset="0.86" stop-color="#847F84"/>
<stop offset="0.88" stop-color="#807B80"/>
<stop offset="1" stop-color="#A7A9AC"/>
</linearGradient>
<linearGradient id="paint35_linear_19_32692" x1="36.8143" y1="270.178" x2="57.7863" y2="270.178" gradientUnits="userSpaceOnUse">
<stop stop-color="#401617"/>
<stop offset="0.08" stop-color="#6B4C2D"/>
<stop offset="0.38" stop-color="#A58A55"/>
<stop offset="0.56" stop-color="#E5D4B5"/>
<stop offset="0.8" stop-color="#967857"/>
<stop offset="0.96" stop-color="#814F2F"/>
</linearGradient>
<linearGradient id="paint36_linear_19_32692" x1="36.8143" y1="340.346" x2="57.7882" y2="340.346" gradientUnits="userSpaceOnUse">
<stop stop-color="#401617"/>
<stop offset="0.08" stop-color="#6B4C2D"/>
<stop offset="0.38" stop-color="#A58A55"/>
<stop offset="0.56" stop-color="#E5D4B5"/>
<stop offset="0.8" stop-color="#967857"/>
<stop offset="0.96" stop-color="#814F2F"/>
</linearGradient>
<linearGradient id="paint37_linear_19_32692" x1="36.8412" y1="299.168" x2="57.2244" y2="299.168" gradientUnits="userSpaceOnUse">
<stop stop-color="#401617"/>
<stop offset="0.08" stop-color="#6B4C2D"/>
<stop offset="0.38" stop-color="#A58A55"/>
<stop offset="0.56" stop-color="#E5D4B5"/>
<stop offset="0.8" stop-color="#967857"/>
<stop offset="0.96" stop-color="#814F2F"/>
</linearGradient>
<linearGradient id="paint38_linear_19_32692" x1="36.8412" y1="369.318" x2="57.2244" y2="369.318" gradientUnits="userSpaceOnUse">
<stop stop-color="#401617"/>
<stop offset="0.08" stop-color="#6B4C2D"/>
<stop offset="0.38" stop-color="#A58A55"/>
<stop offset="0.56" stop-color="#E5D4B5"/>
<stop offset="0.8" stop-color="#967857"/>
<stop offset="0.96" stop-color="#814F2F"/>
</linearGradient>
<linearGradient id="paint39_linear_19_32692" x1="36.7016" y1="278.841" x2="56.3277" y2="278.841" gradientUnits="userSpaceOnUse">
<stop stop-color="#401617"/>
<stop offset="0.08" stop-color="#6B4C2D"/>
<stop offset="0.38" stop-color="#A58A55"/>
<stop offset="0.56" stop-color="#E5D4B5"/>
<stop offset="0.8" stop-color="#967857"/>
<stop offset="0.96" stop-color="#814F2F"/>
</linearGradient>
<linearGradient id="paint40_linear_19_32692" x1="36.7016" y1="348.993" x2="56.3277" y2="348.993" gradientUnits="userSpaceOnUse">
<stop stop-color="#401617"/>
<stop offset="0.08" stop-color="#6B4C2D"/>
<stop offset="0.38" stop-color="#A58A55"/>
<stop offset="0.56" stop-color="#E5D4B5"/>
<stop offset="0.8" stop-color="#967857"/>
<stop offset="0.96" stop-color="#814F2F"/>
</linearGradient>
<linearGradient id="paint41_linear_19_32692" x1="36.7016" y1="290.869" x2="55.9072" y2="290.869" gradientUnits="userSpaceOnUse">
<stop stop-color="#401617"/>
<stop offset="0.08" stop-color="#6B4C2D"/>
<stop offset="0.38" stop-color="#A58A55"/>
<stop offset="0.56" stop-color="#E5D4B5"/>
<stop offset="0.8" stop-color="#967857"/>
<stop offset="0.96" stop-color="#814F2F"/>
</linearGradient>
<linearGradient id="paint42_linear_19_32692" x1="36.7016" y1="361.021" x2="55.9072" y2="361.021" gradientUnits="userSpaceOnUse">
<stop stop-color="#401617"/>
<stop offset="0.08" stop-color="#6B4C2D"/>
<stop offset="0.38" stop-color="#A58A55"/>
<stop offset="0.56" stop-color="#E5D4B5"/>
<stop offset="0.8" stop-color="#967857"/>
<stop offset="0.96" stop-color="#814F2F"/>
</linearGradient>
<clipPath id="clip0_19_32692">
<rect width="248.047" height="172.346" fill="white" transform="translate(36 219.233)"/>
</clipPath>
</defs>
</svg>
